G04*
G04 #@! TF.GenerationSoftware,Altium Limited,Altium Designer,18.1.9 (240)*
G04*
G04 Layer_Color=16711935*
%FSAX25Y25*%
%MOIN*%
G70*
G01*
G75*
%ADD43C,0.00787*%
%ADD66C,0.01000*%
%ADD67C,0.00600*%
D43*
X0243500Y0617500D02*
X0243500Y0099000D01*
X0243500Y0617500D02*
X0544500D01*
X0544500Y0099000D01*
X0243500D02*
X0544500D01*
X0283000Y0099000D02*
X0355598D01*
Y0357181D01*
X0283000D02*
X0355598D01*
X0283000Y0099000D02*
Y0357181D01*
X0357567Y0099000D02*
X0430165D01*
Y0357181D01*
X0357567D02*
X0430165D01*
X0357567Y0099000D02*
Y0357181D01*
X0432134Y0099000D02*
X0504732D01*
Y0357181D01*
X0432134D02*
X0504732D01*
X0432134Y0099000D02*
Y0357181D01*
X0283000Y0359149D02*
X0355598D01*
Y0617330D01*
X0283000D02*
X0355598D01*
X0283000Y0359149D02*
Y0617330D01*
X0357567Y0359149D02*
X0430165D01*
Y0617330D01*
X0357567D02*
X0430165D01*
X0357567Y0359149D02*
Y0617330D01*
X0432134Y0359149D02*
X0504732D01*
Y0617330D01*
X0432134D02*
X0504732D01*
X0432134Y0359149D02*
Y0617330D01*
D66*
X0353118Y0356913D02*
X0363173D01*
X0320835Y0099039D02*
X0363173D01*
X0362173Y0241472D02*
Y0356913D01*
Y0099039D02*
Y0211281D01*
X0360173Y0350913D02*
X0362173Y0356913D01*
X0364173Y0350913D01*
X0362173Y0099039D02*
X0364173Y0105039D01*
X0360173D02*
X0362173Y0099039D01*
X0427685Y0356913D02*
X0437740D01*
X0395402Y0099039D02*
X0437740D01*
X0436740Y0241472D02*
Y0356913D01*
Y0099039D02*
Y0211281D01*
X0434740Y0350913D02*
X0436740Y0356913D01*
X0438740Y0350913D01*
X0436740Y0099039D02*
X0438740Y0105039D01*
X0434740D02*
X0436740Y0099039D01*
X0502252Y0356913D02*
X0512307D01*
X0469969Y0099039D02*
X0512307D01*
X0511307Y0241472D02*
Y0356913D01*
Y0099039D02*
Y0211281D01*
X0509307Y0350913D02*
X0511307Y0356913D01*
X0513307Y0350913D01*
X0511307Y0099039D02*
X0513307Y0105039D01*
X0509307D02*
X0511307Y0099039D01*
X0353118Y0617063D02*
X0363173D01*
X0320835Y0359189D02*
X0363173D01*
X0362173Y0501621D02*
Y0617063D01*
Y0359189D02*
Y0471430D01*
X0360173Y0611063D02*
X0362173Y0617063D01*
X0364173Y0611063D01*
X0362173Y0359189D02*
X0364173Y0365189D01*
X0360173D02*
X0362173Y0359189D01*
X0427685Y0617063D02*
X0437740D01*
X0395402Y0359189D02*
X0437740D01*
X0436740Y0501621D02*
Y0617063D01*
Y0359189D02*
Y0471430D01*
X0434740Y0611063D02*
X0436740Y0617063D01*
X0438740Y0611063D01*
X0436740Y0359189D02*
X0438740Y0365189D01*
X0434740D02*
X0436740Y0359189D01*
X0502252Y0617063D02*
X0512307D01*
X0469969Y0359189D02*
X0512307D01*
X0511307Y0501621D02*
Y0617063D01*
Y0359189D02*
Y0471430D01*
X0509307Y0611063D02*
X0511307Y0617063D01*
X0513307Y0611063D01*
X0511307Y0359189D02*
X0513307Y0365189D01*
X0509307D02*
X0511307Y0359189D01*
D67*
X0359774Y0216879D02*
X0360774Y0214880D01*
X0362773Y0212881D01*
X0364773D01*
X0365772Y0213880D01*
Y0215880D01*
X0364773Y0216879D01*
X0363773D01*
X0362773Y0215880D01*
Y0212881D01*
X0359774Y0222878D02*
Y0218879D01*
X0362773D01*
X0361773Y0220878D01*
Y0221878D01*
X0362773Y0222878D01*
X0364773D01*
X0365772Y0221878D01*
Y0219879D01*
X0364773Y0218879D01*
X0365772Y0224877D02*
X0364773D01*
Y0225876D01*
X0365772D01*
Y0224877D01*
X0359774Y0233874D02*
Y0229875D01*
X0362773D01*
X0361773Y0231875D01*
Y0232874D01*
X0362773Y0233874D01*
X0364773D01*
X0365772Y0232874D01*
Y0230875D01*
X0364773Y0229875D01*
X0360774Y0235873D02*
X0359774Y0236873D01*
Y0238872D01*
X0360774Y0239872D01*
X0364773D01*
X0365772Y0238872D01*
Y0236873D01*
X0364773Y0235873D01*
X0360774D01*
X0434341Y0216879D02*
X0435341Y0214880D01*
X0437340Y0212881D01*
X0439339D01*
X0440339Y0213880D01*
Y0215880D01*
X0439339Y0216879D01*
X0438340D01*
X0437340Y0215880D01*
Y0212881D01*
X0434341Y0222878D02*
Y0218879D01*
X0437340D01*
X0436341Y0220878D01*
Y0221878D01*
X0437340Y0222878D01*
X0439339D01*
X0440339Y0221878D01*
Y0219879D01*
X0439339Y0218879D01*
X0440339Y0224877D02*
X0439339D01*
Y0225876D01*
X0440339D01*
Y0224877D01*
X0434341Y0233874D02*
Y0229875D01*
X0437340D01*
X0436341Y0231875D01*
Y0232874D01*
X0437340Y0233874D01*
X0439339D01*
X0440339Y0232874D01*
Y0230875D01*
X0439339Y0229875D01*
X0435341Y0235873D02*
X0434341Y0236873D01*
Y0238872D01*
X0435341Y0239872D01*
X0439339D01*
X0440339Y0238872D01*
Y0236873D01*
X0439339Y0235873D01*
X0435341D01*
X0508908Y0216879D02*
X0509908Y0214880D01*
X0511907Y0212881D01*
X0513906D01*
X0514906Y0213880D01*
Y0215880D01*
X0513906Y0216879D01*
X0512907D01*
X0511907Y0215880D01*
Y0212881D01*
X0508908Y0222878D02*
Y0218879D01*
X0511907D01*
X0510907Y0220878D01*
Y0221878D01*
X0511907Y0222878D01*
X0513906D01*
X0514906Y0221878D01*
Y0219879D01*
X0513906Y0218879D01*
X0514906Y0224877D02*
X0513906D01*
Y0225876D01*
X0514906D01*
Y0224877D01*
X0508908Y0233874D02*
Y0229875D01*
X0511907D01*
X0510907Y0231875D01*
Y0232874D01*
X0511907Y0233874D01*
X0513906D01*
X0514906Y0232874D01*
Y0230875D01*
X0513906Y0229875D01*
X0509908Y0235873D02*
X0508908Y0236873D01*
Y0238872D01*
X0509908Y0239872D01*
X0513906D01*
X0514906Y0238872D01*
Y0236873D01*
X0513906Y0235873D01*
X0509908D01*
X0359774Y0477029D02*
X0360774Y0475029D01*
X0362773Y0473030D01*
X0364773D01*
X0365772Y0474030D01*
Y0476029D01*
X0364773Y0477029D01*
X0363773D01*
X0362773Y0476029D01*
Y0473030D01*
X0359774Y0483027D02*
Y0479028D01*
X0362773D01*
X0361773Y0481027D01*
Y0482027D01*
X0362773Y0483027D01*
X0364773D01*
X0365772Y0482027D01*
Y0480028D01*
X0364773Y0479028D01*
X0365772Y0485026D02*
X0364773D01*
Y0486026D01*
X0365772D01*
Y0485026D01*
X0359774Y0494023D02*
Y0490025D01*
X0362773D01*
X0361773Y0492024D01*
Y0493023D01*
X0362773Y0494023D01*
X0364773D01*
X0365772Y0493023D01*
Y0491024D01*
X0364773Y0490025D01*
X0360774Y0496023D02*
X0359774Y0497022D01*
Y0499022D01*
X0360774Y0500021D01*
X0364773D01*
X0365772Y0499022D01*
Y0497022D01*
X0364773Y0496023D01*
X0360774D01*
X0434341Y0477029D02*
X0435341Y0475029D01*
X0437340Y0473030D01*
X0439339D01*
X0440339Y0474030D01*
Y0476029D01*
X0439339Y0477029D01*
X0438340D01*
X0437340Y0476029D01*
Y0473030D01*
X0434341Y0483027D02*
Y0479028D01*
X0437340D01*
X0436341Y0481027D01*
Y0482027D01*
X0437340Y0483027D01*
X0439339D01*
X0440339Y0482027D01*
Y0480028D01*
X0439339Y0479028D01*
X0440339Y0485026D02*
X0439339D01*
Y0486026D01*
X0440339D01*
Y0485026D01*
X0434341Y0494023D02*
Y0490025D01*
X0437340D01*
X0436341Y0492024D01*
Y0493023D01*
X0437340Y0494023D01*
X0439339D01*
X0440339Y0493023D01*
Y0491024D01*
X0439339Y0490025D01*
X0435341Y0496023D02*
X0434341Y0497022D01*
Y0499022D01*
X0435341Y0500021D01*
X0439339D01*
X0440339Y0499022D01*
Y0497022D01*
X0439339Y0496023D01*
X0435341D01*
X0508908Y0477029D02*
X0509908Y0475029D01*
X0511907Y0473030D01*
X0513906D01*
X0514906Y0474030D01*
Y0476029D01*
X0513906Y0477029D01*
X0512907D01*
X0511907Y0476029D01*
Y0473030D01*
X0508908Y0483027D02*
Y0479028D01*
X0511907D01*
X0510907Y0481027D01*
Y0482027D01*
X0511907Y0483027D01*
X0513906D01*
X0514906Y0482027D01*
Y0480028D01*
X0513906Y0479028D01*
X0514906Y0485026D02*
X0513906D01*
Y0486026D01*
X0514906D01*
Y0485026D01*
X0508908Y0494023D02*
Y0490025D01*
X0511907D01*
X0510907Y0492024D01*
Y0493023D01*
X0511907Y0494023D01*
X0513906D01*
X0514906Y0493023D01*
Y0491024D01*
X0513906Y0490025D01*
X0509908Y0496023D02*
X0508908Y0497022D01*
Y0499022D01*
X0509908Y0500021D01*
X0513906D01*
X0514906Y0499022D01*
Y0497022D01*
X0513906Y0496023D01*
X0509908D01*
M02*
