G04*
G04 #@! TF.GenerationSoftware,Altium Limited,Altium Designer,18.1.9 (240)*
G04*
G04 Layer_Physical_Order=2*
G04 Layer_Color=16711680*
%FSAX25Y25*%
%MOIN*%
G70*
G01*
G75*
%ADD10C,0.03937*%
%ADD25C,0.03937*%
%ADD26C,0.01181*%
%ADD27C,0.01968*%
%ADD32C,0.14567*%
%ADD33C,0.23622*%
%ADD34R,0.05906X0.05906*%
%ADD35C,0.05906*%
%ADD36R,0.07677X0.07677*%
%ADD37C,0.07677*%
%ADD38C,0.03150*%
%ADD39C,0.01968*%
%ADD40C,0.11811*%
%ADD41C,0.02362*%
%ADD42C,0.07874*%
G36*
X0502926Y0496307D02*
X0502858Y0496273D01*
X0502426Y0496112D01*
X0501669Y0496425D01*
X0500795Y0496540D01*
X0499922Y0496425D01*
X0499108Y0496088D01*
X0498409Y0495552D01*
X0497872Y0494853D01*
X0497535Y0494039D01*
X0497420Y0493165D01*
Y0446453D01*
X0489550Y0438583D01*
X0489014Y0437884D01*
X0488677Y0437070D01*
X0488562Y0436197D01*
Y0384550D01*
X0488098D01*
X0487561Y0384443D01*
X0487105Y0384139D01*
X0486800Y0383683D01*
X0486693Y0383145D01*
Y0375468D01*
X0486800Y0374931D01*
X0487105Y0374475D01*
X0487561Y0374170D01*
X0488098Y0374063D01*
X0495776D01*
X0496313Y0374170D01*
X0496769Y0374475D01*
X0497074Y0374931D01*
X0497181Y0375468D01*
Y0383145D01*
X0497074Y0383683D01*
X0496769Y0384139D01*
X0496313Y0384443D01*
X0495776Y0384550D01*
X0495312D01*
Y0434798D01*
X0502464Y0441950D01*
X0502926Y0441759D01*
Y0360956D01*
X0449925D01*
X0449865Y0361456D01*
X0450002Y0361488D01*
X0451920Y0362283D01*
X0453690Y0363367D01*
X0455268Y0364716D01*
X0456616Y0366294D01*
X0457701Y0368064D01*
X0458496Y0369982D01*
X0458980Y0372001D01*
X0459143Y0374071D01*
X0458980Y0376140D01*
X0458496Y0378159D01*
X0457701Y0380077D01*
X0456616Y0381847D01*
X0455268Y0383425D01*
X0453690Y0384774D01*
X0451920Y0385858D01*
X0450002Y0386653D01*
X0447983Y0387137D01*
X0445913Y0387300D01*
X0443844Y0387137D01*
X0441825Y0386653D01*
X0439907Y0385858D01*
X0438137Y0384774D01*
X0436558Y0383425D01*
X0435210Y0381847D01*
X0434440Y0380590D01*
X0433940Y0380731D01*
Y0597298D01*
X0434431Y0597396D01*
X0434480Y0597277D01*
X0435565Y0595507D01*
X0436913Y0593928D01*
X0438491Y0592580D01*
X0440262Y0591495D01*
X0442179Y0590701D01*
X0444198Y0590216D01*
X0446268Y0590053D01*
X0448337Y0590216D01*
X0450356Y0590701D01*
X0452274Y0591495D01*
X0454044Y0592580D01*
X0455622Y0593928D01*
X0456971Y0595507D01*
X0458055Y0597277D01*
X0458850Y0599195D01*
X0459335Y0601214D01*
X0459497Y0603283D01*
X0459335Y0605353D01*
X0458850Y0607371D01*
X0458055Y0609289D01*
X0456971Y0611059D01*
X0455622Y0612638D01*
X0454044Y0613986D01*
X0452351Y0615024D01*
X0452368Y0615524D01*
X0502926D01*
Y0496307D01*
D02*
G37*
G36*
X0428359D02*
X0428291Y0496273D01*
X0427859Y0496112D01*
X0427102Y0496425D01*
X0426228Y0496540D01*
X0425355Y0496425D01*
X0424541Y0496088D01*
X0423842Y0495552D01*
X0423305Y0494853D01*
X0422968Y0494039D01*
X0422853Y0493165D01*
Y0446453D01*
X0414983Y0438583D01*
X0414447Y0437884D01*
X0414110Y0437070D01*
X0413995Y0436197D01*
Y0384550D01*
X0413531D01*
X0412994Y0384443D01*
X0412538Y0384139D01*
X0412233Y0383683D01*
X0412126Y0383145D01*
Y0375468D01*
X0412233Y0374931D01*
X0412538Y0374475D01*
X0412994Y0374170D01*
X0413531Y0374063D01*
X0421209D01*
X0421746Y0374170D01*
X0422202Y0374475D01*
X0422507Y0374931D01*
X0422614Y0375468D01*
Y0383145D01*
X0422507Y0383683D01*
X0422202Y0384139D01*
X0421746Y0384443D01*
X0421209Y0384550D01*
X0420745D01*
Y0434798D01*
X0427897Y0441950D01*
X0428359Y0441759D01*
Y0360956D01*
X0375358D01*
X0375299Y0361456D01*
X0375435Y0361488D01*
X0377353Y0362283D01*
X0379123Y0363367D01*
X0380701Y0364716D01*
X0382049Y0366294D01*
X0383134Y0368064D01*
X0383929Y0369982D01*
X0384413Y0372001D01*
X0384576Y0374071D01*
X0384413Y0376140D01*
X0383929Y0378159D01*
X0383134Y0380077D01*
X0382049Y0381847D01*
X0380701Y0383425D01*
X0379123Y0384774D01*
X0377353Y0385858D01*
X0375435Y0386653D01*
X0373416Y0387137D01*
X0371346Y0387300D01*
X0369277Y0387137D01*
X0367258Y0386653D01*
X0365340Y0385858D01*
X0363570Y0384774D01*
X0361992Y0383425D01*
X0360643Y0381847D01*
X0359873Y0380590D01*
X0359373Y0380731D01*
Y0597298D01*
X0359864Y0597396D01*
X0359913Y0597277D01*
X0360998Y0595507D01*
X0362346Y0593928D01*
X0363925Y0592580D01*
X0365695Y0591495D01*
X0367613Y0590701D01*
X0369631Y0590216D01*
X0371701Y0590053D01*
X0373770Y0590216D01*
X0375789Y0590701D01*
X0377707Y0591495D01*
X0379477Y0592580D01*
X0381056Y0593928D01*
X0382404Y0595507D01*
X0383489Y0597277D01*
X0384283Y0599195D01*
X0384768Y0601214D01*
X0384930Y0603283D01*
X0384768Y0605353D01*
X0384283Y0607371D01*
X0383489Y0609289D01*
X0382404Y0611059D01*
X0381056Y0612638D01*
X0379477Y0613986D01*
X0377784Y0615024D01*
X0377801Y0615524D01*
X0428359D01*
Y0496307D01*
D02*
G37*
G36*
X0353792D02*
X0353724Y0496273D01*
X0353292Y0496112D01*
X0352535Y0496425D01*
X0351661Y0496540D01*
X0350788Y0496425D01*
X0349974Y0496088D01*
X0349275Y0495552D01*
X0348738Y0494853D01*
X0348401Y0494039D01*
X0348286Y0493165D01*
Y0446453D01*
X0340416Y0438583D01*
X0339880Y0437884D01*
X0339543Y0437070D01*
X0339428Y0436197D01*
Y0384550D01*
X0338965D01*
X0338427Y0384443D01*
X0337971Y0384139D01*
X0337667Y0383683D01*
X0337560Y0383145D01*
Y0375468D01*
X0337667Y0374931D01*
X0337971Y0374475D01*
X0338427Y0374170D01*
X0338965Y0374063D01*
X0346642D01*
X0347179Y0374170D01*
X0347635Y0374475D01*
X0347940Y0374931D01*
X0348047Y0375468D01*
Y0383145D01*
X0347940Y0383683D01*
X0347635Y0384139D01*
X0347179Y0384443D01*
X0346642Y0384550D01*
X0346179D01*
Y0434798D01*
X0353330Y0441950D01*
X0353792Y0441759D01*
Y0360956D01*
X0300791D01*
X0300732Y0361456D01*
X0300868Y0361488D01*
X0302786Y0362283D01*
X0304556Y0363367D01*
X0306134Y0364716D01*
X0307483Y0366294D01*
X0308567Y0368064D01*
X0309362Y0369982D01*
X0309846Y0372001D01*
X0310009Y0374071D01*
X0309846Y0376140D01*
X0309362Y0378159D01*
X0308567Y0380077D01*
X0307483Y0381847D01*
X0306134Y0383425D01*
X0304556Y0384774D01*
X0302786Y0385858D01*
X0300868Y0386653D01*
X0298849Y0387137D01*
X0296779Y0387300D01*
X0294710Y0387137D01*
X0292691Y0386653D01*
X0290773Y0385858D01*
X0289003Y0384774D01*
X0287425Y0383425D01*
X0286076Y0381847D01*
X0285306Y0380590D01*
X0284806Y0380731D01*
Y0597298D01*
X0285297Y0597396D01*
X0285346Y0597277D01*
X0286431Y0595507D01*
X0287779Y0593928D01*
X0289358Y0592580D01*
X0291128Y0591495D01*
X0293046Y0590701D01*
X0295064Y0590216D01*
X0297134Y0590053D01*
X0299203Y0590216D01*
X0301222Y0590701D01*
X0303140Y0591495D01*
X0304910Y0592580D01*
X0306489Y0593928D01*
X0307837Y0595507D01*
X0308922Y0597277D01*
X0309716Y0599195D01*
X0310201Y0601214D01*
X0310364Y0603283D01*
X0310201Y0605353D01*
X0309716Y0607371D01*
X0308922Y0609289D01*
X0307837Y0611059D01*
X0306489Y0612638D01*
X0304910Y0613986D01*
X0303217Y0615024D01*
X0303234Y0615524D01*
X0353792D01*
Y0496307D01*
D02*
G37*
G36*
X0502926Y0236157D02*
X0502858Y0236124D01*
X0502426Y0235963D01*
X0501669Y0236276D01*
X0500795Y0236391D01*
X0499922Y0236276D01*
X0499108Y0235939D01*
X0498409Y0235402D01*
X0497872Y0234703D01*
X0497535Y0233889D01*
X0497420Y0233016D01*
Y0186304D01*
X0489550Y0178434D01*
X0489014Y0177735D01*
X0488677Y0176921D01*
X0488562Y0176047D01*
Y0124401D01*
X0488098D01*
X0487561Y0124294D01*
X0487105Y0123989D01*
X0486800Y0123534D01*
X0486693Y0122996D01*
Y0115319D01*
X0486800Y0114781D01*
X0487105Y0114325D01*
X0487561Y0114021D01*
X0488098Y0113914D01*
X0495776D01*
X0496313Y0114021D01*
X0496769Y0114325D01*
X0497074Y0114781D01*
X0497181Y0115319D01*
Y0122996D01*
X0497074Y0123534D01*
X0496769Y0123989D01*
X0496313Y0124294D01*
X0495776Y0124401D01*
X0495312D01*
Y0174649D01*
X0502464Y0181801D01*
X0502926Y0181609D01*
Y0100806D01*
X0449925D01*
X0449865Y0101306D01*
X0450002Y0101339D01*
X0451920Y0102134D01*
X0453690Y0103218D01*
X0455268Y0104566D01*
X0456616Y0106145D01*
X0457701Y0107915D01*
X0458496Y0109833D01*
X0458980Y0111852D01*
X0459143Y0113921D01*
X0458980Y0115991D01*
X0458496Y0118009D01*
X0457701Y0119927D01*
X0456616Y0121697D01*
X0455268Y0123276D01*
X0453690Y0124624D01*
X0451920Y0125709D01*
X0450002Y0126504D01*
X0447983Y0126988D01*
X0445913Y0127151D01*
X0443844Y0126988D01*
X0441825Y0126504D01*
X0439907Y0125709D01*
X0438137Y0124624D01*
X0436558Y0123276D01*
X0435210Y0121697D01*
X0434440Y0120441D01*
X0433940Y0120582D01*
Y0337149D01*
X0434431Y0337247D01*
X0434480Y0337128D01*
X0435565Y0335358D01*
X0436913Y0333779D01*
X0438491Y0332431D01*
X0440262Y0331346D01*
X0442179Y0330552D01*
X0444198Y0330067D01*
X0446268Y0329904D01*
X0448337Y0330067D01*
X0450356Y0330552D01*
X0452274Y0331346D01*
X0454044Y0332431D01*
X0455622Y0333779D01*
X0456971Y0335358D01*
X0458055Y0337128D01*
X0458850Y0339046D01*
X0459335Y0341064D01*
X0459497Y0343134D01*
X0459335Y0345203D01*
X0458850Y0347222D01*
X0458055Y0349140D01*
X0456971Y0350910D01*
X0455622Y0352489D01*
X0454044Y0353837D01*
X0452351Y0354874D01*
X0452368Y0355374D01*
X0502926D01*
Y0236157D01*
D02*
G37*
G36*
X0428359D02*
X0428291Y0236124D01*
X0427859Y0235963D01*
X0427102Y0236276D01*
X0426228Y0236391D01*
X0425355Y0236276D01*
X0424541Y0235939D01*
X0423842Y0235402D01*
X0423305Y0234703D01*
X0422968Y0233889D01*
X0422853Y0233016D01*
Y0186304D01*
X0414983Y0178434D01*
X0414447Y0177735D01*
X0414110Y0176921D01*
X0413995Y0176047D01*
Y0124401D01*
X0413531D01*
X0412994Y0124294D01*
X0412538Y0123989D01*
X0412233Y0123534D01*
X0412126Y0122996D01*
Y0115319D01*
X0412233Y0114781D01*
X0412538Y0114325D01*
X0412994Y0114021D01*
X0413531Y0113914D01*
X0421209D01*
X0421746Y0114021D01*
X0422202Y0114325D01*
X0422507Y0114781D01*
X0422614Y0115319D01*
Y0122996D01*
X0422507Y0123534D01*
X0422202Y0123989D01*
X0421746Y0124294D01*
X0421209Y0124401D01*
X0420745D01*
Y0174649D01*
X0427897Y0181801D01*
X0428359Y0181609D01*
Y0100806D01*
X0375358D01*
X0375299Y0101306D01*
X0375435Y0101339D01*
X0377353Y0102134D01*
X0379123Y0103218D01*
X0380701Y0104566D01*
X0382049Y0106145D01*
X0383134Y0107915D01*
X0383929Y0109833D01*
X0384413Y0111852D01*
X0384576Y0113921D01*
X0384413Y0115991D01*
X0383929Y0118009D01*
X0383134Y0119927D01*
X0382049Y0121697D01*
X0380701Y0123276D01*
X0379123Y0124624D01*
X0377353Y0125709D01*
X0375435Y0126504D01*
X0373416Y0126988D01*
X0371346Y0127151D01*
X0369277Y0126988D01*
X0367258Y0126504D01*
X0365340Y0125709D01*
X0363570Y0124624D01*
X0361992Y0123276D01*
X0360643Y0121697D01*
X0359873Y0120441D01*
X0359373Y0120582D01*
Y0337149D01*
X0359864Y0337247D01*
X0359913Y0337128D01*
X0360998Y0335358D01*
X0362346Y0333779D01*
X0363925Y0332431D01*
X0365695Y0331346D01*
X0367613Y0330552D01*
X0369631Y0330067D01*
X0371701Y0329904D01*
X0373770Y0330067D01*
X0375789Y0330552D01*
X0377707Y0331346D01*
X0379477Y0332431D01*
X0381056Y0333779D01*
X0382404Y0335358D01*
X0383489Y0337128D01*
X0384283Y0339046D01*
X0384768Y0341064D01*
X0384930Y0343134D01*
X0384768Y0345203D01*
X0384283Y0347222D01*
X0383489Y0349140D01*
X0382404Y0350910D01*
X0381056Y0352489D01*
X0379477Y0353837D01*
X0377784Y0354874D01*
X0377801Y0355374D01*
X0428359D01*
Y0236157D01*
D02*
G37*
G36*
X0353792D02*
X0353724Y0236124D01*
X0353292Y0235963D01*
X0352535Y0236276D01*
X0351661Y0236391D01*
X0350788Y0236276D01*
X0349974Y0235939D01*
X0349275Y0235402D01*
X0348738Y0234703D01*
X0348401Y0233889D01*
X0348286Y0233016D01*
Y0186304D01*
X0340416Y0178434D01*
X0339880Y0177735D01*
X0339543Y0176921D01*
X0339428Y0176047D01*
Y0124401D01*
X0338965D01*
X0338427Y0124294D01*
X0337971Y0123989D01*
X0337667Y0123534D01*
X0337560Y0122996D01*
Y0115319D01*
X0337667Y0114781D01*
X0337971Y0114325D01*
X0338427Y0114021D01*
X0338965Y0113914D01*
X0346642D01*
X0347179Y0114021D01*
X0347635Y0114325D01*
X0347940Y0114781D01*
X0348047Y0115319D01*
Y0122996D01*
X0347940Y0123534D01*
X0347635Y0123989D01*
X0347179Y0124294D01*
X0346642Y0124401D01*
X0346179D01*
Y0174649D01*
X0353330Y0181801D01*
X0353792Y0181609D01*
Y0100806D01*
X0300791D01*
X0300732Y0101306D01*
X0300868Y0101339D01*
X0302786Y0102134D01*
X0304556Y0103218D01*
X0306134Y0104566D01*
X0307483Y0106145D01*
X0308567Y0107915D01*
X0309362Y0109833D01*
X0309846Y0111852D01*
X0310009Y0113921D01*
X0309846Y0115991D01*
X0309362Y0118009D01*
X0308567Y0119927D01*
X0307483Y0121697D01*
X0306134Y0123276D01*
X0304556Y0124624D01*
X0302786Y0125709D01*
X0300868Y0126504D01*
X0298849Y0126988D01*
X0296779Y0127151D01*
X0294710Y0126988D01*
X0292691Y0126504D01*
X0290773Y0125709D01*
X0289003Y0124624D01*
X0287425Y0123276D01*
X0286076Y0121697D01*
X0285306Y0120441D01*
X0284806Y0120582D01*
Y0337149D01*
X0285297Y0337247D01*
X0285346Y0337128D01*
X0286431Y0335358D01*
X0287779Y0333779D01*
X0289358Y0332431D01*
X0291128Y0331346D01*
X0293046Y0330552D01*
X0295064Y0330067D01*
X0297134Y0329904D01*
X0299203Y0330067D01*
X0301222Y0330552D01*
X0303140Y0331346D01*
X0304910Y0332431D01*
X0306489Y0333779D01*
X0307837Y0335358D01*
X0308922Y0337128D01*
X0309716Y0339046D01*
X0310201Y0341064D01*
X0310364Y0343134D01*
X0310201Y0345203D01*
X0309716Y0347222D01*
X0308922Y0349140D01*
X0307837Y0350910D01*
X0306489Y0352489D01*
X0304910Y0353837D01*
X0303217Y0354874D01*
X0303234Y0355374D01*
X0353792D01*
Y0236157D01*
D02*
G37*
%LPC*%
G36*
X0477705Y0602267D02*
X0470027D01*
X0469490Y0602160D01*
X0469034Y0601855D01*
X0468729Y0601400D01*
X0468623Y0600862D01*
Y0593185D01*
X0468729Y0592647D01*
X0469034Y0592191D01*
X0469490Y0591887D01*
X0470027Y0591780D01*
X0477705D01*
X0478242Y0591887D01*
X0478698Y0592191D01*
X0479003Y0592647D01*
X0479110Y0593185D01*
Y0600862D01*
X0479003Y0601400D01*
X0478698Y0601855D01*
X0478242Y0602160D01*
X0477705Y0602267D01*
D02*
G37*
G36*
X0459850Y0529135D02*
X0459080Y0529034D01*
X0458361Y0528736D01*
X0457744Y0528263D01*
X0457271Y0527646D01*
X0456974Y0526928D01*
X0456872Y0526157D01*
X0456974Y0525386D01*
X0457271Y0524668D01*
X0457744Y0524051D01*
X0457941Y0523901D01*
X0457876Y0523405D01*
X0457813Y0523379D01*
X0457196Y0522906D01*
X0456723Y0522289D01*
X0456426Y0521570D01*
X0456324Y0520800D01*
X0456426Y0520029D01*
X0456723Y0519311D01*
X0457196Y0518694D01*
X0457813Y0518220D01*
X0458532Y0517923D01*
X0459302Y0517821D01*
X0460073Y0517923D01*
X0460791Y0518220D01*
X0461408Y0518694D01*
X0461882Y0519311D01*
X0462179Y0520029D01*
X0462281Y0520800D01*
X0462264Y0520923D01*
X0463365Y0522024D01*
X0471813D01*
X0474641Y0519195D01*
X0474728Y0518536D01*
X0475026Y0517817D01*
X0475499Y0517200D01*
X0476116Y0516727D01*
X0476834Y0516430D01*
X0476883Y0516423D01*
X0477930Y0515376D01*
X0478581Y0514941D01*
X0479349Y0514788D01*
X0482173D01*
X0482226Y0514390D01*
X0482523Y0513672D01*
X0482996Y0513055D01*
X0483613Y0512582D01*
X0484332Y0512284D01*
X0485102Y0512183D01*
X0485873Y0512284D01*
X0486591Y0512582D01*
X0487208Y0513055D01*
X0487682Y0513672D01*
X0487979Y0514390D01*
X0488081Y0515161D01*
X0487979Y0515932D01*
X0487682Y0516650D01*
X0487208Y0517267D01*
X0486591Y0517740D01*
X0485873Y0518038D01*
X0485102Y0518139D01*
X0484979Y0518123D01*
X0484888Y0518214D01*
X0484434Y0518517D01*
X0484690Y0519134D01*
X0484791Y0519905D01*
X0484690Y0520676D01*
X0484392Y0521394D01*
X0483919Y0522011D01*
X0483302Y0522484D01*
X0482584Y0522782D01*
X0481813Y0522883D01*
X0481145Y0522795D01*
X0476364Y0527576D01*
X0475713Y0528011D01*
X0474945Y0528164D01*
X0462032D01*
X0461956Y0528263D01*
X0461340Y0528736D01*
X0460621Y0529034D01*
X0459850Y0529135D01*
D02*
G37*
G36*
X0465102Y0495978D02*
X0464331Y0495876D01*
X0463613Y0495579D01*
X0462996Y0495106D01*
X0462523Y0494489D01*
X0462226Y0493771D01*
X0462124Y0493000D01*
X0462226Y0492229D01*
X0462523Y0491510D01*
X0462694Y0491288D01*
Y0488997D01*
X0462105Y0488408D01*
X0441189D01*
X0440267Y0488225D01*
X0439486Y0487703D01*
X0436218Y0484435D01*
X0435696Y0483654D01*
X0435513Y0482732D01*
Y0462732D01*
X0435696Y0461810D01*
X0436218Y0461029D01*
X0447993Y0449254D01*
Y0439531D01*
X0447134D01*
X0446596Y0439424D01*
X0446140Y0439119D01*
X0445836Y0438663D01*
X0445729Y0438126D01*
Y0432220D01*
X0445836Y0431682D01*
X0446140Y0431227D01*
X0446596Y0430922D01*
X0447134Y0430815D01*
X0453039D01*
X0453577Y0430922D01*
X0454033Y0431227D01*
X0454337Y0431682D01*
X0454444Y0432220D01*
Y0438126D01*
X0454337Y0438663D01*
X0454033Y0439119D01*
X0453577Y0439424D01*
X0453039Y0439531D01*
X0452810D01*
Y0450252D01*
X0452627Y0451173D01*
X0452105Y0451955D01*
X0440330Y0463730D01*
Y0476571D01*
X0440830Y0476905D01*
X0441229Y0476739D01*
X0442102Y0476624D01*
X0462099D01*
X0462119Y0476622D01*
X0462544Y0476176D01*
X0462521Y0476000D01*
Y0469484D01*
X0462226Y0468771D01*
X0462124Y0468000D01*
X0462226Y0467229D01*
X0462523Y0466510D01*
X0462996Y0465894D01*
X0463613Y0465420D01*
X0464331Y0465123D01*
X0465102Y0465021D01*
X0465873Y0465123D01*
X0466592Y0465420D01*
X0467208Y0465894D01*
X0467682Y0466510D01*
X0467979Y0467229D01*
X0468081Y0468000D01*
X0467979Y0468771D01*
X0467684Y0469484D01*
Y0475128D01*
X0467708Y0475131D01*
X0468426Y0475428D01*
X0469043Y0475902D01*
X0469516Y0476518D01*
X0469814Y0477237D01*
X0469915Y0478008D01*
X0469814Y0478778D01*
X0469516Y0479497D01*
X0469043Y0480114D01*
X0468426Y0480587D01*
X0467708Y0480884D01*
X0467370Y0481433D01*
X0467437Y0481944D01*
X0467322Y0482818D01*
X0466985Y0483632D01*
X0466448Y0484331D01*
X0465938Y0484722D01*
X0465832Y0485323D01*
X0466805Y0486297D01*
X0467327Y0487078D01*
X0467511Y0488000D01*
Y0491288D01*
X0467682Y0491510D01*
X0467979Y0492229D01*
X0468081Y0493000D01*
X0467979Y0493771D01*
X0467682Y0494489D01*
X0467208Y0495106D01*
X0466592Y0495579D01*
X0465873Y0495876D01*
X0465102Y0495978D01*
D02*
G37*
G36*
X0403138Y0602267D02*
X0395461D01*
X0394923Y0602160D01*
X0394467Y0601855D01*
X0394163Y0601400D01*
X0394056Y0600862D01*
Y0593185D01*
X0394163Y0592647D01*
X0394467Y0592191D01*
X0394923Y0591887D01*
X0395461Y0591780D01*
X0403138D01*
X0403675Y0591887D01*
X0404131Y0592191D01*
X0404436Y0592647D01*
X0404543Y0593185D01*
Y0600862D01*
X0404436Y0601400D01*
X0404131Y0601855D01*
X0403675Y0602160D01*
X0403138Y0602267D01*
D02*
G37*
G36*
X0385283Y0529135D02*
X0384513Y0529034D01*
X0383794Y0528736D01*
X0383177Y0528263D01*
X0382704Y0527646D01*
X0382407Y0526928D01*
X0382305Y0526157D01*
X0382407Y0525386D01*
X0382704Y0524668D01*
X0383177Y0524051D01*
X0383374Y0523901D01*
X0383309Y0523405D01*
X0383246Y0523379D01*
X0382629Y0522906D01*
X0382156Y0522289D01*
X0381859Y0521570D01*
X0381757Y0520800D01*
X0381859Y0520029D01*
X0382156Y0519311D01*
X0382629Y0518694D01*
X0383246Y0518220D01*
X0383965Y0517923D01*
X0384735Y0517821D01*
X0385506Y0517923D01*
X0386225Y0518220D01*
X0386841Y0518694D01*
X0387315Y0519311D01*
X0387612Y0520029D01*
X0387714Y0520800D01*
X0387697Y0520923D01*
X0388798Y0522024D01*
X0397246D01*
X0400074Y0519195D01*
X0400161Y0518536D01*
X0400459Y0517817D01*
X0400932Y0517200D01*
X0401549Y0516727D01*
X0402267Y0516430D01*
X0402316Y0516423D01*
X0403363Y0515376D01*
X0404014Y0514941D01*
X0404782Y0514788D01*
X0407606D01*
X0407659Y0514390D01*
X0407956Y0513672D01*
X0408429Y0513055D01*
X0409046Y0512582D01*
X0409765Y0512284D01*
X0410535Y0512183D01*
X0411306Y0512284D01*
X0412024Y0512582D01*
X0412641Y0513055D01*
X0413115Y0513672D01*
X0413412Y0514390D01*
X0413514Y0515161D01*
X0413412Y0515932D01*
X0413115Y0516650D01*
X0412641Y0517267D01*
X0412024Y0517740D01*
X0411306Y0518038D01*
X0410535Y0518139D01*
X0410412Y0518123D01*
X0410321Y0518214D01*
X0409867Y0518517D01*
X0410123Y0519134D01*
X0410224Y0519905D01*
X0410123Y0520676D01*
X0409825Y0521394D01*
X0409352Y0522011D01*
X0408735Y0522484D01*
X0408017Y0522782D01*
X0407246Y0522883D01*
X0406578Y0522795D01*
X0401797Y0527576D01*
X0401146Y0528011D01*
X0400378Y0528164D01*
X0387465D01*
X0387389Y0528263D01*
X0386773Y0528736D01*
X0386054Y0529034D01*
X0385283Y0529135D01*
D02*
G37*
G36*
X0390535Y0495978D02*
X0389765Y0495876D01*
X0389046Y0495579D01*
X0388429Y0495106D01*
X0387956Y0494489D01*
X0387659Y0493771D01*
X0387557Y0493000D01*
X0387659Y0492229D01*
X0387956Y0491510D01*
X0388127Y0491288D01*
Y0488997D01*
X0387538Y0488408D01*
X0366622D01*
X0365700Y0488225D01*
X0364919Y0487703D01*
X0361651Y0484435D01*
X0361129Y0483654D01*
X0360946Y0482732D01*
Y0462732D01*
X0361129Y0461810D01*
X0361651Y0461029D01*
X0373426Y0449254D01*
Y0439531D01*
X0372567D01*
X0372029Y0439424D01*
X0371573Y0439119D01*
X0371269Y0438663D01*
X0371162Y0438126D01*
Y0432220D01*
X0371269Y0431682D01*
X0371573Y0431227D01*
X0372029Y0430922D01*
X0372567Y0430815D01*
X0378472D01*
X0379010Y0430922D01*
X0379466Y0431227D01*
X0379770Y0431682D01*
X0379877Y0432220D01*
Y0438126D01*
X0379770Y0438663D01*
X0379466Y0439119D01*
X0379010Y0439424D01*
X0378472Y0439531D01*
X0378243D01*
Y0450252D01*
X0378060Y0451173D01*
X0377538Y0451955D01*
X0365763Y0463730D01*
Y0476571D01*
X0366263Y0476905D01*
X0366662Y0476739D01*
X0367535Y0476624D01*
X0387532D01*
X0387552Y0476622D01*
X0387978Y0476176D01*
X0387954Y0476000D01*
Y0469484D01*
X0387659Y0468771D01*
X0387557Y0468000D01*
X0387659Y0467229D01*
X0387956Y0466510D01*
X0388429Y0465894D01*
X0389046Y0465420D01*
X0389765Y0465123D01*
X0390535Y0465021D01*
X0391306Y0465123D01*
X0392024Y0465420D01*
X0392641Y0465894D01*
X0393115Y0466510D01*
X0393412Y0467229D01*
X0393514Y0468000D01*
X0393412Y0468771D01*
X0393117Y0469484D01*
Y0475128D01*
X0393141Y0475131D01*
X0393859Y0475428D01*
X0394476Y0475902D01*
X0394949Y0476518D01*
X0395247Y0477237D01*
X0395348Y0478008D01*
X0395247Y0478778D01*
X0394949Y0479497D01*
X0394476Y0480114D01*
X0393859Y0480587D01*
X0393141Y0480884D01*
X0392803Y0481433D01*
X0392870Y0481944D01*
X0392755Y0482818D01*
X0392418Y0483632D01*
X0391881Y0484331D01*
X0391371Y0484722D01*
X0391265Y0485323D01*
X0392238Y0486297D01*
X0392761Y0487078D01*
X0392944Y0488000D01*
Y0491288D01*
X0393115Y0491510D01*
X0393412Y0492229D01*
X0393514Y0493000D01*
X0393412Y0493771D01*
X0393115Y0494489D01*
X0392641Y0495106D01*
X0392024Y0495579D01*
X0391306Y0495876D01*
X0390535Y0495978D01*
D02*
G37*
G36*
X0328571Y0602267D02*
X0320894D01*
X0320356Y0602160D01*
X0319900Y0601855D01*
X0319596Y0601400D01*
X0319489Y0600862D01*
Y0593185D01*
X0319596Y0592647D01*
X0319900Y0592191D01*
X0320356Y0591887D01*
X0320894Y0591780D01*
X0328571D01*
X0329109Y0591887D01*
X0329564Y0592191D01*
X0329869Y0592647D01*
X0329976Y0593185D01*
Y0600862D01*
X0329869Y0601400D01*
X0329564Y0601855D01*
X0329109Y0602160D01*
X0328571Y0602267D01*
D02*
G37*
G36*
X0310717Y0529135D02*
X0309946Y0529034D01*
X0309227Y0528736D01*
X0308611Y0528263D01*
X0308137Y0527646D01*
X0307840Y0526928D01*
X0307738Y0526157D01*
X0307840Y0525386D01*
X0308137Y0524668D01*
X0308611Y0524051D01*
X0308807Y0523901D01*
X0308742Y0523405D01*
X0308679Y0523379D01*
X0308063Y0522906D01*
X0307589Y0522289D01*
X0307292Y0521570D01*
X0307190Y0520800D01*
X0307292Y0520029D01*
X0307589Y0519311D01*
X0308063Y0518694D01*
X0308679Y0518220D01*
X0309398Y0517923D01*
X0310169Y0517821D01*
X0310939Y0517923D01*
X0311658Y0518220D01*
X0312274Y0518694D01*
X0312748Y0519311D01*
X0313045Y0520029D01*
X0313147Y0520800D01*
X0313130Y0520923D01*
X0314231Y0522024D01*
X0322679D01*
X0325508Y0519195D01*
X0325594Y0518536D01*
X0325892Y0517817D01*
X0326365Y0517200D01*
X0326982Y0516727D01*
X0327700Y0516430D01*
X0327749Y0516423D01*
X0328796Y0515376D01*
X0329448Y0514941D01*
X0330216Y0514788D01*
X0333039D01*
X0333092Y0514390D01*
X0333389Y0513672D01*
X0333863Y0513055D01*
X0334479Y0512582D01*
X0335198Y0512284D01*
X0335968Y0512183D01*
X0336739Y0512284D01*
X0337458Y0512582D01*
X0338074Y0513055D01*
X0338548Y0513672D01*
X0338845Y0514390D01*
X0338947Y0515161D01*
X0338845Y0515932D01*
X0338548Y0516650D01*
X0338074Y0517267D01*
X0337458Y0517740D01*
X0336739Y0518038D01*
X0335968Y0518139D01*
X0335845Y0518123D01*
X0335754Y0518214D01*
X0335300Y0518517D01*
X0335556Y0519134D01*
X0335657Y0519905D01*
X0335556Y0520676D01*
X0335258Y0521394D01*
X0334785Y0522011D01*
X0334168Y0522484D01*
X0333450Y0522782D01*
X0332679Y0522883D01*
X0332011Y0522795D01*
X0327230Y0527576D01*
X0326579Y0528011D01*
X0325811Y0528164D01*
X0312898D01*
X0312823Y0528263D01*
X0312206Y0528736D01*
X0311487Y0529034D01*
X0310717Y0529135D01*
D02*
G37*
G36*
X0315968Y0495978D02*
X0315198Y0495876D01*
X0314479Y0495579D01*
X0313863Y0495106D01*
X0313389Y0494489D01*
X0313092Y0493771D01*
X0312990Y0493000D01*
X0313092Y0492229D01*
X0313389Y0491510D01*
X0313560Y0491288D01*
Y0488997D01*
X0312971Y0488408D01*
X0292055D01*
X0291133Y0488225D01*
X0290352Y0487703D01*
X0287084Y0484435D01*
X0286562Y0483654D01*
X0286379Y0482732D01*
Y0462732D01*
X0286562Y0461810D01*
X0287084Y0461029D01*
X0298859Y0449254D01*
Y0439531D01*
X0298000D01*
X0297462Y0439424D01*
X0297007Y0439119D01*
X0296702Y0438663D01*
X0296595Y0438126D01*
Y0432220D01*
X0296702Y0431682D01*
X0297007Y0431227D01*
X0297462Y0430922D01*
X0298000Y0430815D01*
X0303906D01*
X0304443Y0430922D01*
X0304899Y0431227D01*
X0305204Y0431682D01*
X0305310Y0432220D01*
Y0438126D01*
X0305204Y0438663D01*
X0304899Y0439119D01*
X0304443Y0439424D01*
X0303906Y0439531D01*
X0303676D01*
Y0450252D01*
X0303493Y0451173D01*
X0302971Y0451955D01*
X0291196Y0463730D01*
Y0476571D01*
X0291696Y0476905D01*
X0292095Y0476739D01*
X0292969Y0476624D01*
X0312965D01*
X0312985Y0476622D01*
X0313411Y0476176D01*
X0313387Y0476000D01*
Y0469484D01*
X0313092Y0468771D01*
X0312990Y0468000D01*
X0313092Y0467229D01*
X0313389Y0466510D01*
X0313863Y0465894D01*
X0314479Y0465420D01*
X0315198Y0465123D01*
X0315968Y0465021D01*
X0316739Y0465123D01*
X0317458Y0465420D01*
X0318074Y0465894D01*
X0318548Y0466510D01*
X0318845Y0467229D01*
X0318947Y0468000D01*
X0318845Y0468771D01*
X0318550Y0469484D01*
Y0475128D01*
X0318574Y0475131D01*
X0319292Y0475428D01*
X0319909Y0475902D01*
X0320382Y0476518D01*
X0320680Y0477237D01*
X0320781Y0478008D01*
X0320680Y0478778D01*
X0320382Y0479497D01*
X0319909Y0480114D01*
X0319292Y0480587D01*
X0318574Y0480884D01*
X0318236Y0481433D01*
X0318303Y0481944D01*
X0318188Y0482818D01*
X0317851Y0483632D01*
X0317315Y0484331D01*
X0316804Y0484722D01*
X0316698Y0485323D01*
X0317671Y0486297D01*
X0318194Y0487078D01*
X0318377Y0488000D01*
Y0491288D01*
X0318548Y0491510D01*
X0318845Y0492229D01*
X0318947Y0493000D01*
X0318845Y0493771D01*
X0318548Y0494489D01*
X0318074Y0495106D01*
X0317458Y0495579D01*
X0316739Y0495876D01*
X0315968Y0495978D01*
D02*
G37*
G36*
X0477705Y0342118D02*
X0470027D01*
X0469490Y0342011D01*
X0469034Y0341706D01*
X0468729Y0341250D01*
X0468623Y0340713D01*
Y0333035D01*
X0468729Y0332498D01*
X0469034Y0332042D01*
X0469490Y0331737D01*
X0470027Y0331630D01*
X0477705D01*
X0478242Y0331737D01*
X0478698Y0332042D01*
X0479003Y0332498D01*
X0479110Y0333035D01*
Y0340713D01*
X0479003Y0341250D01*
X0478698Y0341706D01*
X0478242Y0342011D01*
X0477705Y0342118D01*
D02*
G37*
G36*
X0459850Y0268986D02*
X0459080Y0268885D01*
X0458361Y0268587D01*
X0457744Y0268114D01*
X0457271Y0267497D01*
X0456974Y0266779D01*
X0456872Y0266008D01*
X0456974Y0265237D01*
X0457271Y0264519D01*
X0457744Y0263902D01*
X0457941Y0263751D01*
X0457876Y0263256D01*
X0457813Y0263230D01*
X0457196Y0262756D01*
X0456723Y0262140D01*
X0456426Y0261421D01*
X0456324Y0260650D01*
X0456426Y0259880D01*
X0456723Y0259161D01*
X0457196Y0258544D01*
X0457813Y0258071D01*
X0458532Y0257774D01*
X0459302Y0257672D01*
X0460073Y0257774D01*
X0460791Y0258071D01*
X0461408Y0258544D01*
X0461882Y0259161D01*
X0462179Y0259880D01*
X0462281Y0260650D01*
X0462264Y0260774D01*
X0463365Y0261875D01*
X0471813D01*
X0474641Y0259046D01*
X0474728Y0258386D01*
X0475026Y0257668D01*
X0475499Y0257051D01*
X0476116Y0256578D01*
X0476834Y0256280D01*
X0476883Y0256274D01*
X0477930Y0255226D01*
X0478581Y0254791D01*
X0479349Y0254639D01*
X0482173D01*
X0482226Y0254241D01*
X0482523Y0253523D01*
X0482996Y0252906D01*
X0483613Y0252433D01*
X0484332Y0252135D01*
X0485102Y0252034D01*
X0485873Y0252135D01*
X0486591Y0252433D01*
X0487208Y0252906D01*
X0487682Y0253523D01*
X0487979Y0254241D01*
X0488081Y0255012D01*
X0487979Y0255783D01*
X0487682Y0256501D01*
X0487208Y0257118D01*
X0486591Y0257591D01*
X0485873Y0257889D01*
X0485102Y0257990D01*
X0484979Y0257974D01*
X0484888Y0258065D01*
X0484434Y0258368D01*
X0484690Y0258985D01*
X0484791Y0259756D01*
X0484690Y0260527D01*
X0484392Y0261245D01*
X0483919Y0261862D01*
X0483302Y0262335D01*
X0482584Y0262633D01*
X0481813Y0262734D01*
X0481145Y0262646D01*
X0476364Y0267427D01*
X0475713Y0267862D01*
X0474945Y0268015D01*
X0462032D01*
X0461956Y0268114D01*
X0461340Y0268587D01*
X0460621Y0268885D01*
X0459850Y0268986D01*
D02*
G37*
G36*
X0465102Y0235829D02*
X0464331Y0235727D01*
X0463613Y0235430D01*
X0462996Y0234956D01*
X0462523Y0234339D01*
X0462226Y0233621D01*
X0462124Y0232850D01*
X0462226Y0232080D01*
X0462523Y0231361D01*
X0462694Y0231139D01*
Y0228848D01*
X0462105Y0228259D01*
X0441189D01*
X0440267Y0228076D01*
X0439486Y0227553D01*
X0436218Y0224286D01*
X0435696Y0223504D01*
X0435513Y0222583D01*
Y0202583D01*
X0435696Y0201661D01*
X0436218Y0200880D01*
X0447993Y0189105D01*
Y0179381D01*
X0447134D01*
X0446596Y0179274D01*
X0446140Y0178970D01*
X0445836Y0178514D01*
X0445729Y0177976D01*
Y0172071D01*
X0445836Y0171533D01*
X0446140Y0171077D01*
X0446596Y0170773D01*
X0447134Y0170666D01*
X0453039D01*
X0453577Y0170773D01*
X0454033Y0171077D01*
X0454337Y0171533D01*
X0454444Y0172071D01*
Y0177976D01*
X0454337Y0178514D01*
X0454033Y0178970D01*
X0453577Y0179274D01*
X0453039Y0179381D01*
X0452810D01*
Y0190102D01*
X0452627Y0191024D01*
X0452105Y0191805D01*
X0440330Y0203580D01*
Y0216421D01*
X0440830Y0216755D01*
X0441229Y0216590D01*
X0442102Y0216475D01*
X0462099D01*
X0462119Y0216473D01*
X0462544Y0216027D01*
X0462521Y0215850D01*
Y0209335D01*
X0462226Y0208621D01*
X0462124Y0207850D01*
X0462226Y0207080D01*
X0462523Y0206361D01*
X0462996Y0205745D01*
X0463613Y0205271D01*
X0464331Y0204974D01*
X0465102Y0204872D01*
X0465873Y0204974D01*
X0466592Y0205271D01*
X0467208Y0205745D01*
X0467682Y0206361D01*
X0467979Y0207080D01*
X0468081Y0207850D01*
X0467979Y0208621D01*
X0467684Y0209335D01*
Y0214978D01*
X0467708Y0214982D01*
X0468426Y0215279D01*
X0469043Y0215752D01*
X0469516Y0216369D01*
X0469814Y0217087D01*
X0469915Y0217858D01*
X0469814Y0218629D01*
X0469516Y0219347D01*
X0469043Y0219964D01*
X0468426Y0220438D01*
X0467708Y0220735D01*
X0467370Y0221284D01*
X0467437Y0221795D01*
X0467322Y0222669D01*
X0466985Y0223483D01*
X0466448Y0224182D01*
X0465938Y0224573D01*
X0465832Y0225174D01*
X0466805Y0226147D01*
X0467327Y0226929D01*
X0467511Y0227850D01*
Y0231139D01*
X0467682Y0231361D01*
X0467979Y0232080D01*
X0468081Y0232850D01*
X0467979Y0233621D01*
X0467682Y0234339D01*
X0467208Y0234956D01*
X0466592Y0235430D01*
X0465873Y0235727D01*
X0465102Y0235829D01*
D02*
G37*
G36*
X0403138Y0342118D02*
X0395461D01*
X0394923Y0342011D01*
X0394467Y0341706D01*
X0394163Y0341250D01*
X0394056Y0340713D01*
Y0333035D01*
X0394163Y0332498D01*
X0394467Y0332042D01*
X0394923Y0331737D01*
X0395461Y0331630D01*
X0403138D01*
X0403675Y0331737D01*
X0404131Y0332042D01*
X0404436Y0332498D01*
X0404543Y0333035D01*
Y0340713D01*
X0404436Y0341250D01*
X0404131Y0341706D01*
X0403675Y0342011D01*
X0403138Y0342118D01*
D02*
G37*
G36*
X0385283Y0268986D02*
X0384513Y0268885D01*
X0383794Y0268587D01*
X0383177Y0268114D01*
X0382704Y0267497D01*
X0382407Y0266779D01*
X0382305Y0266008D01*
X0382407Y0265237D01*
X0382704Y0264519D01*
X0383177Y0263902D01*
X0383374Y0263751D01*
X0383309Y0263256D01*
X0383246Y0263230D01*
X0382629Y0262756D01*
X0382156Y0262140D01*
X0381859Y0261421D01*
X0381757Y0260650D01*
X0381859Y0259880D01*
X0382156Y0259161D01*
X0382629Y0258544D01*
X0383246Y0258071D01*
X0383965Y0257774D01*
X0384735Y0257672D01*
X0385506Y0257774D01*
X0386225Y0258071D01*
X0386841Y0258544D01*
X0387315Y0259161D01*
X0387612Y0259880D01*
X0387714Y0260650D01*
X0387697Y0260774D01*
X0388798Y0261875D01*
X0397246D01*
X0400074Y0259046D01*
X0400161Y0258386D01*
X0400459Y0257668D01*
X0400932Y0257051D01*
X0401549Y0256578D01*
X0402267Y0256280D01*
X0402316Y0256274D01*
X0403363Y0255226D01*
X0404014Y0254791D01*
X0404782Y0254639D01*
X0407606D01*
X0407659Y0254241D01*
X0407956Y0253523D01*
X0408429Y0252906D01*
X0409046Y0252433D01*
X0409765Y0252135D01*
X0410535Y0252034D01*
X0411306Y0252135D01*
X0412024Y0252433D01*
X0412641Y0252906D01*
X0413115Y0253523D01*
X0413412Y0254241D01*
X0413514Y0255012D01*
X0413412Y0255783D01*
X0413115Y0256501D01*
X0412641Y0257118D01*
X0412024Y0257591D01*
X0411306Y0257889D01*
X0410535Y0257990D01*
X0410412Y0257974D01*
X0410321Y0258065D01*
X0409867Y0258368D01*
X0410123Y0258985D01*
X0410224Y0259756D01*
X0410123Y0260527D01*
X0409825Y0261245D01*
X0409352Y0261862D01*
X0408735Y0262335D01*
X0408017Y0262633D01*
X0407246Y0262734D01*
X0406578Y0262646D01*
X0401797Y0267427D01*
X0401146Y0267862D01*
X0400378Y0268015D01*
X0387465D01*
X0387389Y0268114D01*
X0386773Y0268587D01*
X0386054Y0268885D01*
X0385283Y0268986D01*
D02*
G37*
G36*
X0390535Y0235829D02*
X0389765Y0235727D01*
X0389046Y0235430D01*
X0388429Y0234956D01*
X0387956Y0234339D01*
X0387659Y0233621D01*
X0387557Y0232850D01*
X0387659Y0232080D01*
X0387956Y0231361D01*
X0388127Y0231139D01*
Y0228848D01*
X0387538Y0228259D01*
X0366622D01*
X0365700Y0228076D01*
X0364919Y0227553D01*
X0361651Y0224286D01*
X0361129Y0223504D01*
X0360946Y0222583D01*
Y0202583D01*
X0361129Y0201661D01*
X0361651Y0200880D01*
X0373426Y0189105D01*
Y0179381D01*
X0372567D01*
X0372029Y0179274D01*
X0371573Y0178970D01*
X0371269Y0178514D01*
X0371162Y0177976D01*
Y0172071D01*
X0371269Y0171533D01*
X0371573Y0171077D01*
X0372029Y0170773D01*
X0372567Y0170666D01*
X0378472D01*
X0379010Y0170773D01*
X0379466Y0171077D01*
X0379770Y0171533D01*
X0379877Y0172071D01*
Y0177976D01*
X0379770Y0178514D01*
X0379466Y0178970D01*
X0379010Y0179274D01*
X0378472Y0179381D01*
X0378243D01*
Y0190102D01*
X0378060Y0191024D01*
X0377538Y0191805D01*
X0365763Y0203580D01*
Y0216421D01*
X0366263Y0216755D01*
X0366662Y0216590D01*
X0367535Y0216475D01*
X0387532D01*
X0387552Y0216473D01*
X0387978Y0216027D01*
X0387954Y0215850D01*
Y0209335D01*
X0387659Y0208621D01*
X0387557Y0207850D01*
X0387659Y0207080D01*
X0387956Y0206361D01*
X0388429Y0205745D01*
X0389046Y0205271D01*
X0389765Y0204974D01*
X0390535Y0204872D01*
X0391306Y0204974D01*
X0392024Y0205271D01*
X0392641Y0205745D01*
X0393115Y0206361D01*
X0393412Y0207080D01*
X0393514Y0207850D01*
X0393412Y0208621D01*
X0393117Y0209335D01*
Y0214978D01*
X0393141Y0214982D01*
X0393859Y0215279D01*
X0394476Y0215752D01*
X0394949Y0216369D01*
X0395247Y0217087D01*
X0395348Y0217858D01*
X0395247Y0218629D01*
X0394949Y0219347D01*
X0394476Y0219964D01*
X0393859Y0220438D01*
X0393141Y0220735D01*
X0392803Y0221284D01*
X0392870Y0221795D01*
X0392755Y0222669D01*
X0392418Y0223483D01*
X0391881Y0224182D01*
X0391371Y0224573D01*
X0391265Y0225174D01*
X0392238Y0226147D01*
X0392761Y0226929D01*
X0392944Y0227850D01*
Y0231139D01*
X0393115Y0231361D01*
X0393412Y0232080D01*
X0393514Y0232850D01*
X0393412Y0233621D01*
X0393115Y0234339D01*
X0392641Y0234956D01*
X0392024Y0235430D01*
X0391306Y0235727D01*
X0390535Y0235829D01*
D02*
G37*
G36*
X0328571Y0342118D02*
X0320894D01*
X0320356Y0342011D01*
X0319900Y0341706D01*
X0319596Y0341250D01*
X0319489Y0340713D01*
Y0333035D01*
X0319596Y0332498D01*
X0319900Y0332042D01*
X0320356Y0331737D01*
X0320894Y0331630D01*
X0328571D01*
X0329109Y0331737D01*
X0329564Y0332042D01*
X0329869Y0332498D01*
X0329976Y0333035D01*
Y0340713D01*
X0329869Y0341250D01*
X0329564Y0341706D01*
X0329109Y0342011D01*
X0328571Y0342118D01*
D02*
G37*
G36*
X0310717Y0268986D02*
X0309946Y0268885D01*
X0309227Y0268587D01*
X0308611Y0268114D01*
X0308137Y0267497D01*
X0307840Y0266779D01*
X0307738Y0266008D01*
X0307840Y0265237D01*
X0308137Y0264519D01*
X0308611Y0263902D01*
X0308807Y0263751D01*
X0308742Y0263256D01*
X0308679Y0263230D01*
X0308063Y0262756D01*
X0307589Y0262140D01*
X0307292Y0261421D01*
X0307190Y0260650D01*
X0307292Y0259880D01*
X0307589Y0259161D01*
X0308063Y0258544D01*
X0308679Y0258071D01*
X0309398Y0257774D01*
X0310169Y0257672D01*
X0310939Y0257774D01*
X0311658Y0258071D01*
X0312274Y0258544D01*
X0312748Y0259161D01*
X0313045Y0259880D01*
X0313147Y0260650D01*
X0313130Y0260774D01*
X0314231Y0261875D01*
X0322679D01*
X0325508Y0259046D01*
X0325594Y0258386D01*
X0325892Y0257668D01*
X0326365Y0257051D01*
X0326982Y0256578D01*
X0327700Y0256280D01*
X0327749Y0256274D01*
X0328796Y0255226D01*
X0329448Y0254791D01*
X0330216Y0254639D01*
X0333039D01*
X0333092Y0254241D01*
X0333389Y0253523D01*
X0333863Y0252906D01*
X0334479Y0252433D01*
X0335198Y0252135D01*
X0335968Y0252034D01*
X0336739Y0252135D01*
X0337458Y0252433D01*
X0338074Y0252906D01*
X0338548Y0253523D01*
X0338845Y0254241D01*
X0338947Y0255012D01*
X0338845Y0255783D01*
X0338548Y0256501D01*
X0338074Y0257118D01*
X0337458Y0257591D01*
X0336739Y0257889D01*
X0335968Y0257990D01*
X0335845Y0257974D01*
X0335754Y0258065D01*
X0335300Y0258368D01*
X0335556Y0258985D01*
X0335657Y0259756D01*
X0335556Y0260527D01*
X0335258Y0261245D01*
X0334785Y0261862D01*
X0334168Y0262335D01*
X0333450Y0262633D01*
X0332679Y0262734D01*
X0332011Y0262646D01*
X0327230Y0267427D01*
X0326579Y0267862D01*
X0325811Y0268015D01*
X0312898D01*
X0312823Y0268114D01*
X0312206Y0268587D01*
X0311487Y0268885D01*
X0310717Y0268986D01*
D02*
G37*
G36*
X0315968Y0235829D02*
X0315198Y0235727D01*
X0314479Y0235430D01*
X0313863Y0234956D01*
X0313389Y0234339D01*
X0313092Y0233621D01*
X0312990Y0232850D01*
X0313092Y0232080D01*
X0313389Y0231361D01*
X0313560Y0231139D01*
Y0228848D01*
X0312971Y0228259D01*
X0292055D01*
X0291133Y0228076D01*
X0290352Y0227553D01*
X0287084Y0224286D01*
X0286562Y0223504D01*
X0286379Y0222583D01*
Y0202583D01*
X0286562Y0201661D01*
X0287084Y0200880D01*
X0298859Y0189105D01*
Y0179381D01*
X0298000D01*
X0297462Y0179274D01*
X0297007Y0178970D01*
X0296702Y0178514D01*
X0296595Y0177976D01*
Y0172071D01*
X0296702Y0171533D01*
X0297007Y0171077D01*
X0297462Y0170773D01*
X0298000Y0170666D01*
X0303906D01*
X0304443Y0170773D01*
X0304899Y0171077D01*
X0305204Y0171533D01*
X0305310Y0172071D01*
Y0177976D01*
X0305204Y0178514D01*
X0304899Y0178970D01*
X0304443Y0179274D01*
X0303906Y0179381D01*
X0303676D01*
Y0190102D01*
X0303493Y0191024D01*
X0302971Y0191805D01*
X0291196Y0203580D01*
Y0216421D01*
X0291696Y0216755D01*
X0292095Y0216590D01*
X0292969Y0216475D01*
X0312965D01*
X0312985Y0216473D01*
X0313411Y0216027D01*
X0313387Y0215850D01*
Y0209335D01*
X0313092Y0208621D01*
X0312990Y0207850D01*
X0313092Y0207080D01*
X0313389Y0206361D01*
X0313863Y0205745D01*
X0314479Y0205271D01*
X0315198Y0204974D01*
X0315968Y0204872D01*
X0316739Y0204974D01*
X0317458Y0205271D01*
X0318074Y0205745D01*
X0318548Y0206361D01*
X0318845Y0207080D01*
X0318947Y0207850D01*
X0318845Y0208621D01*
X0318550Y0209335D01*
Y0214978D01*
X0318574Y0214982D01*
X0319292Y0215279D01*
X0319909Y0215752D01*
X0320382Y0216369D01*
X0320680Y0217087D01*
X0320781Y0217858D01*
X0320680Y0218629D01*
X0320382Y0219347D01*
X0319909Y0219964D01*
X0319292Y0220438D01*
X0318574Y0220735D01*
X0318236Y0221284D01*
X0318303Y0221795D01*
X0318188Y0222669D01*
X0317851Y0223483D01*
X0317315Y0224182D01*
X0316804Y0224573D01*
X0316698Y0225174D01*
X0317671Y0226147D01*
X0318194Y0226929D01*
X0318377Y0227850D01*
Y0231139D01*
X0318548Y0231361D01*
X0318845Y0232080D01*
X0318947Y0232850D01*
X0318845Y0233621D01*
X0318548Y0234339D01*
X0318074Y0234956D01*
X0317458Y0235430D01*
X0316739Y0235727D01*
X0315968Y0235829D01*
D02*
G37*
%LPD*%
D10*
X0524000Y0568567D02*
D03*
X0262500D02*
D03*
Y0149433D02*
D03*
D25*
X0351661Y0184906D02*
Y0233016D01*
X0342803Y0176047D02*
X0351661Y0184906D01*
X0342803Y0119118D02*
Y0176047D01*
X0312983Y0219850D02*
X0314928Y0221795D01*
X0292969Y0219850D02*
X0312983D01*
X0426228Y0184906D02*
Y0233016D01*
X0417370Y0176047D02*
X0426228Y0184906D01*
X0417370Y0119118D02*
Y0176047D01*
X0387550Y0219850D02*
X0389495Y0221795D01*
X0367535Y0219850D02*
X0387550D01*
X0500795Y0184906D02*
Y0233016D01*
X0491937Y0176047D02*
X0500795Y0184906D01*
X0491937Y0119118D02*
Y0176047D01*
X0462117Y0219850D02*
X0464062Y0221795D01*
X0442102Y0219850D02*
X0462117D01*
X0351661Y0445055D02*
Y0493165D01*
X0342803Y0436197D02*
X0351661Y0445055D01*
X0342803Y0379267D02*
Y0436197D01*
X0312983Y0480000D02*
X0314928Y0481944D01*
X0292969Y0480000D02*
X0312983D01*
X0426228Y0445055D02*
Y0493165D01*
X0417370Y0436197D02*
X0426228Y0445055D01*
X0417370Y0379267D02*
Y0436197D01*
X0387550Y0480000D02*
X0389495Y0481944D01*
X0367535Y0480000D02*
X0387550D01*
X0500795Y0445055D02*
Y0493165D01*
X0491937Y0436197D02*
X0500795Y0445055D01*
X0491937Y0379267D02*
Y0436197D01*
X0462117Y0480000D02*
X0464062Y0481944D01*
X0442102Y0480000D02*
X0462117D01*
D26*
X0310169Y0260650D02*
X0313400Y0263882D01*
X0332740Y0259850D02*
X0332854Y0259736D01*
X0334335Y0256646D02*
X0335968Y0255012D01*
X0332835Y0259945D02*
X0332837Y0259943D01*
X0332740Y0259850D02*
X0332835Y0259945D01*
X0313400Y0263882D02*
X0323510D01*
X0330216Y0256646D02*
X0334335D01*
X0328196Y0258666D02*
X0330216Y0256646D01*
X0323510Y0263882D02*
X0328196Y0259196D01*
X0332221Y0259598D02*
X0332378Y0259756D01*
X0332679D01*
Y0259786D02*
X0332837Y0259943D01*
X0332679Y0259756D02*
Y0259786D01*
X0328471Y0258941D02*
Y0259157D01*
X0328196Y0259196D02*
X0328432D01*
X0328471Y0259157D01*
X0328196Y0258666D02*
X0328471Y0258941D01*
X0310717Y0266008D02*
X0325811D01*
X0332221Y0259598D01*
X0384735Y0260650D02*
X0387967Y0263882D01*
X0407307Y0259850D02*
X0407421Y0259736D01*
X0408902Y0256646D02*
X0410535Y0255012D01*
X0407402Y0259945D02*
X0407403Y0259943D01*
X0407307Y0259850D02*
X0407402Y0259945D01*
X0387967Y0263882D02*
X0398077D01*
X0404782Y0256646D02*
X0408902D01*
X0402763Y0258666D02*
X0404782Y0256646D01*
X0398077Y0263882D02*
X0402763Y0259196D01*
X0406787Y0259598D02*
X0406945Y0259756D01*
X0407246D01*
Y0259786D02*
X0407403Y0259943D01*
X0407246Y0259756D02*
Y0259786D01*
X0403038Y0258941D02*
Y0259157D01*
X0402763Y0259196D02*
X0402999D01*
X0403038Y0259157D01*
X0402763Y0258666D02*
X0403038Y0258941D01*
X0385283Y0266008D02*
X0400378D01*
X0406787Y0259598D01*
X0459302Y0260650D02*
X0462534Y0263882D01*
X0481874Y0259850D02*
X0481988Y0259736D01*
X0483468Y0256646D02*
X0485102Y0255012D01*
X0481968Y0259945D02*
X0481970Y0259943D01*
X0481874Y0259850D02*
X0481968Y0259945D01*
X0462534Y0263882D02*
X0472644D01*
X0479349Y0256646D02*
X0483468D01*
X0477329Y0258666D02*
X0479349Y0256646D01*
X0472644Y0263882D02*
X0477329Y0259196D01*
X0481354Y0259598D02*
X0481512Y0259756D01*
X0481813D01*
Y0259786D02*
X0481970Y0259943D01*
X0481813Y0259756D02*
Y0259786D01*
X0477605Y0258941D02*
Y0259157D01*
X0477329Y0259196D02*
X0477566D01*
X0477605Y0259157D01*
X0477329Y0258666D02*
X0477605Y0258941D01*
X0459850Y0266008D02*
X0474945D01*
X0481354Y0259598D01*
X0310169Y0520800D02*
X0313400Y0524031D01*
X0332740Y0520000D02*
X0332854Y0519885D01*
X0334335Y0516795D02*
X0335968Y0515161D01*
X0332835Y0520094D02*
X0332837Y0520092D01*
X0332740Y0520000D02*
X0332835Y0520094D01*
X0313400Y0524031D02*
X0323510D01*
X0330216Y0516795D02*
X0334335D01*
X0328196Y0518815D02*
X0330216Y0516795D01*
X0323510Y0524031D02*
X0328196Y0519346D01*
X0332221Y0519748D02*
X0332378Y0519905D01*
X0332679D01*
Y0519935D02*
X0332837Y0520092D01*
X0332679Y0519905D02*
Y0519935D01*
X0328471Y0519091D02*
Y0519306D01*
X0328196Y0519346D02*
X0328432D01*
X0328471Y0519306D01*
X0328196Y0518815D02*
X0328471Y0519091D01*
X0310717Y0526157D02*
X0325811D01*
X0332221Y0519748D01*
X0384735Y0520800D02*
X0387967Y0524031D01*
X0407307Y0520000D02*
X0407421Y0519885D01*
X0408902Y0516795D02*
X0410535Y0515161D01*
X0407402Y0520094D02*
X0407403Y0520092D01*
X0407307Y0520000D02*
X0407402Y0520094D01*
X0387967Y0524031D02*
X0398077D01*
X0404782Y0516795D02*
X0408902D01*
X0402763Y0518815D02*
X0404782Y0516795D01*
X0398077Y0524031D02*
X0402763Y0519346D01*
X0406787Y0519748D02*
X0406945Y0519905D01*
X0407246D01*
Y0519935D02*
X0407403Y0520092D01*
X0407246Y0519905D02*
Y0519935D01*
X0403038Y0519091D02*
Y0519306D01*
X0402763Y0519346D02*
X0402999D01*
X0403038Y0519306D01*
X0402763Y0518815D02*
X0403038Y0519091D01*
X0385283Y0526157D02*
X0400378D01*
X0406787Y0519748D01*
X0459302Y0520800D02*
X0462534Y0524031D01*
X0481874Y0520000D02*
X0481988Y0519885D01*
X0483468Y0516795D02*
X0485102Y0515161D01*
X0481968Y0520094D02*
X0481970Y0520092D01*
X0481874Y0520000D02*
X0481968Y0520094D01*
X0462534Y0524031D02*
X0472644D01*
X0479349Y0516795D02*
X0483468D01*
X0477329Y0518815D02*
X0479349Y0516795D01*
X0472644Y0524031D02*
X0477329Y0519346D01*
X0481354Y0519748D02*
X0481512Y0519905D01*
X0481813D01*
Y0519935D02*
X0481970Y0520092D01*
X0481813Y0519905D02*
Y0519935D01*
X0477605Y0519091D02*
Y0519306D01*
X0477329Y0519346D02*
X0477566D01*
X0477605Y0519306D01*
X0477329Y0518815D02*
X0477605Y0519091D01*
X0459850Y0526157D02*
X0474945D01*
X0481354Y0519748D01*
D27*
X0288787Y0222583D02*
X0292055Y0225850D01*
X0288787Y0202583D02*
Y0222583D01*
Y0202583D02*
X0301268Y0190102D01*
Y0175024D02*
Y0190102D01*
X0289968Y0250850D02*
X0294468Y0246350D01*
X0326969D02*
X0328969D01*
X0320969D02*
X0324969D01*
X0310968Y0244850D02*
X0312469Y0246350D01*
X0315968Y0227850D02*
Y0232850D01*
X0313968Y0225850D02*
X0315968Y0227850D01*
X0312448Y0242267D02*
X0313000Y0242819D01*
X0312448Y0230732D02*
Y0242267D01*
X0310968Y0244850D02*
X0313000Y0242819D01*
X0315968Y0215850D02*
X0317976Y0217858D01*
X0317803D02*
X0317976D01*
X0292055Y0225850D02*
X0313968D01*
X0363354Y0222583D02*
X0366622Y0225850D01*
X0363354Y0202583D02*
Y0222583D01*
Y0202583D02*
X0375835Y0190102D01*
Y0175024D02*
Y0190102D01*
X0364535Y0250850D02*
X0369035Y0246350D01*
X0401535D02*
X0403535D01*
X0395535D02*
X0399535D01*
X0385535Y0244850D02*
X0387035Y0246350D01*
X0390535Y0227850D02*
Y0232850D01*
X0388535Y0225850D02*
X0390535Y0227850D01*
X0387015Y0242267D02*
X0387567Y0242819D01*
X0387015Y0230732D02*
Y0242267D01*
X0385535Y0244850D02*
X0387567Y0242819D01*
X0390535Y0215850D02*
X0392543Y0217858D01*
X0392370D02*
X0392543D01*
X0366622Y0225850D02*
X0388535D01*
X0437921Y0222583D02*
X0441189Y0225850D01*
X0437921Y0202583D02*
Y0222583D01*
Y0202583D02*
X0450402Y0190102D01*
Y0175024D02*
Y0190102D01*
X0439102Y0250850D02*
X0443602Y0246350D01*
X0476102D02*
X0478102D01*
X0470102D02*
X0474102D01*
X0460102Y0244850D02*
X0461602Y0246350D01*
X0465102Y0227850D02*
Y0232850D01*
X0463102Y0225850D02*
X0465102Y0227850D01*
X0461581Y0242267D02*
X0462134Y0242819D01*
X0461581Y0230732D02*
Y0242267D01*
X0460102Y0244850D02*
X0462134Y0242819D01*
X0465102Y0215850D02*
X0467110Y0217858D01*
X0466937D02*
X0467110D01*
X0441189Y0225850D02*
X0463102D01*
X0288787Y0482732D02*
X0292055Y0486000D01*
X0288787Y0462732D02*
Y0482732D01*
Y0462732D02*
X0301268Y0450252D01*
Y0435173D02*
Y0450252D01*
X0289968Y0511000D02*
X0294468Y0506500D01*
X0326969D02*
X0328969D01*
X0320969D02*
X0324969D01*
X0310968Y0505000D02*
X0312469Y0506500D01*
X0315968Y0488000D02*
Y0493000D01*
X0313968Y0486000D02*
X0315968Y0488000D01*
X0312448Y0502416D02*
X0313000Y0502968D01*
X0312448Y0490881D02*
Y0502416D01*
X0310968Y0505000D02*
X0313000Y0502968D01*
X0315968Y0476000D02*
X0317976Y0478008D01*
X0317803D02*
X0317976D01*
X0292055Y0486000D02*
X0313968D01*
X0363354Y0482732D02*
X0366622Y0486000D01*
X0363354Y0462732D02*
Y0482732D01*
Y0462732D02*
X0375835Y0450252D01*
Y0435173D02*
Y0450252D01*
X0364535Y0511000D02*
X0369035Y0506500D01*
X0401535D02*
X0403535D01*
X0395535D02*
X0399535D01*
X0385535Y0505000D02*
X0387035Y0506500D01*
X0390535Y0488000D02*
Y0493000D01*
X0388535Y0486000D02*
X0390535Y0488000D01*
X0387015Y0502416D02*
X0387567Y0502968D01*
X0387015Y0490881D02*
Y0502416D01*
X0385535Y0505000D02*
X0387567Y0502968D01*
X0390535Y0476000D02*
X0392543Y0478008D01*
X0392370D02*
X0392543D01*
X0366622Y0486000D02*
X0388535D01*
X0437921Y0482732D02*
X0441189Y0486000D01*
X0437921Y0462732D02*
Y0482732D01*
Y0462732D02*
X0450402Y0450252D01*
Y0435173D02*
Y0450252D01*
X0439102Y0511000D02*
X0443602Y0506500D01*
X0476102D02*
X0478102D01*
X0470102D02*
X0474102D01*
X0460102Y0505000D02*
X0461602Y0506500D01*
X0465102Y0488000D02*
Y0493000D01*
X0463102Y0486000D02*
X0465102Y0488000D01*
X0461581Y0502416D02*
X0462134Y0502968D01*
X0461581Y0490881D02*
Y0502416D01*
X0460102Y0505000D02*
X0462134Y0502968D01*
X0465102Y0476000D02*
X0467110Y0478008D01*
X0466937D02*
X0467110D01*
X0441189Y0486000D02*
X0463102D01*
D32*
X0524000Y0604000D02*
D03*
X0262500D02*
D03*
Y0114000D02*
D03*
D33*
X0297134Y0343134D02*
D03*
X0296779Y0113921D02*
D03*
X0371701Y0343134D02*
D03*
X0371346Y0113921D02*
D03*
X0446268Y0343134D02*
D03*
X0445913Y0113921D02*
D03*
X0297134Y0603283D02*
D03*
X0296779Y0374071D02*
D03*
X0371701Y0603283D02*
D03*
X0371346Y0374071D02*
D03*
X0446268Y0603283D02*
D03*
X0445913Y0374071D02*
D03*
D34*
X0300953Y0175024D02*
D03*
X0375520D02*
D03*
X0450087D02*
D03*
X0300953Y0435173D02*
D03*
X0375520D02*
D03*
X0450087D02*
D03*
D35*
X0290953Y0175024D02*
D03*
X0365520D02*
D03*
X0440087D02*
D03*
X0290953Y0435173D02*
D03*
X0365520D02*
D03*
X0440087D02*
D03*
D36*
X0342803Y0119158D02*
D03*
X0324732Y0336874D02*
D03*
X0417370Y0119158D02*
D03*
X0399299Y0336874D02*
D03*
X0491937Y0119158D02*
D03*
X0473866Y0336874D02*
D03*
X0342803Y0379307D02*
D03*
X0324732Y0597023D02*
D03*
X0417370Y0379307D02*
D03*
X0399299Y0597023D02*
D03*
X0491937Y0379307D02*
D03*
X0473866Y0597023D02*
D03*
D37*
X0322803Y0119118D02*
D03*
X0344732Y0336913D02*
D03*
X0397370Y0119118D02*
D03*
X0419299Y0336913D02*
D03*
X0471937Y0119118D02*
D03*
X0493866Y0336913D02*
D03*
X0322803Y0379267D02*
D03*
X0344732Y0597063D02*
D03*
X0397370Y0379267D02*
D03*
X0419299Y0597063D02*
D03*
X0471937Y0379267D02*
D03*
X0493866Y0597063D02*
D03*
D38*
X0338276Y0185378D02*
D03*
X0345362Y0191677D02*
D03*
X0295913Y0220024D02*
D03*
X0296543Y0283410D02*
D03*
X0351661Y0233016D02*
D03*
X0342213Y0195693D02*
D03*
X0332646Y0307268D02*
D03*
X0327468Y0210850D02*
D03*
X0302724Y0209118D02*
D03*
X0293709Y0207347D02*
D03*
X0300480Y0283410D02*
D03*
X0347370Y0259591D02*
D03*
X0347173Y0266559D02*
D03*
X0346740Y0276835D02*
D03*
X0345362Y0186165D02*
D03*
X0329969Y0185850D02*
D03*
X0312469D02*
D03*
X0295244Y0186756D02*
D03*
X0293590Y0191795D02*
D03*
X0289457Y0307661D02*
D03*
X0310169Y0260650D02*
D03*
X0335968Y0255012D02*
D03*
X0292969Y0219850D02*
D03*
X0315968Y0207850D02*
D03*
Y0232850D02*
D03*
X0300874Y0269630D02*
D03*
X0301661Y0256638D02*
D03*
X0312644Y0220141D02*
D03*
X0317803Y0217858D02*
D03*
X0314928Y0221795D02*
D03*
X0312448Y0230732D02*
D03*
X0310402Y0231638D02*
D03*
X0296504Y0237898D02*
D03*
X0328471Y0259157D02*
D03*
X0332679Y0259756D02*
D03*
X0340390Y0313295D02*
D03*
X0319181Y0314512D02*
D03*
X0310717Y0266008D02*
D03*
X0312134Y0289472D02*
D03*
X0312094Y0285850D02*
D03*
X0312283Y0293370D02*
D03*
X0312370Y0301559D02*
D03*
X0312409Y0297661D02*
D03*
X0312724Y0305693D02*
D03*
X0289496Y0186441D02*
D03*
X0412843Y0185378D02*
D03*
X0419929Y0191677D02*
D03*
X0370480Y0220024D02*
D03*
X0371110Y0283410D02*
D03*
X0426228Y0233016D02*
D03*
X0416780Y0195693D02*
D03*
X0407213Y0307268D02*
D03*
X0402035Y0210850D02*
D03*
X0377291Y0209118D02*
D03*
X0368276Y0207347D02*
D03*
X0375047Y0283410D02*
D03*
X0421937Y0259591D02*
D03*
X0421740Y0266559D02*
D03*
X0421307Y0276835D02*
D03*
X0419929Y0186165D02*
D03*
X0404535Y0185850D02*
D03*
X0387035D02*
D03*
X0369811Y0186756D02*
D03*
X0368158Y0191795D02*
D03*
X0364024Y0307661D02*
D03*
X0384735Y0260650D02*
D03*
X0410535Y0255012D02*
D03*
X0367535Y0219850D02*
D03*
X0390535Y0207850D02*
D03*
Y0232850D02*
D03*
X0375441Y0269630D02*
D03*
X0376228Y0256638D02*
D03*
X0387211Y0220141D02*
D03*
X0392370Y0217858D02*
D03*
X0389495Y0221795D02*
D03*
X0387015Y0230732D02*
D03*
X0384968Y0231638D02*
D03*
X0371071Y0237898D02*
D03*
X0403038Y0259157D02*
D03*
X0407246Y0259756D02*
D03*
X0414957Y0313295D02*
D03*
X0393748Y0314512D02*
D03*
X0385283Y0266008D02*
D03*
X0386701Y0289472D02*
D03*
X0386661Y0285850D02*
D03*
X0386850Y0293370D02*
D03*
X0386937Y0301559D02*
D03*
X0386976Y0297661D02*
D03*
X0387291Y0305693D02*
D03*
X0364063Y0186441D02*
D03*
X0487409Y0185378D02*
D03*
X0494496Y0191677D02*
D03*
X0445047Y0220024D02*
D03*
X0445677Y0283410D02*
D03*
X0500795Y0233016D02*
D03*
X0491346Y0195693D02*
D03*
X0481779Y0307268D02*
D03*
X0476602Y0210850D02*
D03*
X0451858Y0209118D02*
D03*
X0442842Y0207347D02*
D03*
X0449614Y0283410D02*
D03*
X0496504Y0259591D02*
D03*
X0496307Y0266559D02*
D03*
X0495874Y0276835D02*
D03*
X0494496Y0186165D02*
D03*
X0479102Y0185850D02*
D03*
X0461602D02*
D03*
X0444378Y0186756D02*
D03*
X0442724Y0191795D02*
D03*
X0438590Y0307661D02*
D03*
X0459302Y0260650D02*
D03*
X0485102Y0255012D02*
D03*
X0442102Y0219850D02*
D03*
X0465102Y0207850D02*
D03*
Y0232850D02*
D03*
X0450008Y0269630D02*
D03*
X0450795Y0256638D02*
D03*
X0461778Y0220141D02*
D03*
X0466937Y0217858D02*
D03*
X0464062Y0221795D02*
D03*
X0461581Y0230732D02*
D03*
X0459535Y0231638D02*
D03*
X0445638Y0237898D02*
D03*
X0477605Y0259157D02*
D03*
X0481813Y0259756D02*
D03*
X0489524Y0313295D02*
D03*
X0468315Y0314512D02*
D03*
X0459850Y0266008D02*
D03*
X0461268Y0289472D02*
D03*
X0461228Y0285850D02*
D03*
X0461417Y0293370D02*
D03*
X0461504Y0301559D02*
D03*
X0461543Y0297661D02*
D03*
X0461858Y0305693D02*
D03*
X0438630Y0186441D02*
D03*
X0338276Y0445527D02*
D03*
X0345362Y0451826D02*
D03*
X0295913Y0480173D02*
D03*
X0296543Y0543559D02*
D03*
X0351661Y0493165D02*
D03*
X0342213Y0455842D02*
D03*
X0332646Y0567417D02*
D03*
X0327468Y0471000D02*
D03*
X0302724Y0469267D02*
D03*
X0293709Y0467496D02*
D03*
X0300480Y0543559D02*
D03*
X0347370Y0519740D02*
D03*
X0347173Y0526708D02*
D03*
X0346740Y0536984D02*
D03*
X0345362Y0446315D02*
D03*
X0329969Y0446000D02*
D03*
X0312469D02*
D03*
X0295244Y0446905D02*
D03*
X0293590Y0451944D02*
D03*
X0289457Y0567811D02*
D03*
X0310169Y0520800D02*
D03*
X0335968Y0515161D02*
D03*
X0292969Y0480000D02*
D03*
X0315968Y0468000D02*
D03*
Y0493000D02*
D03*
X0300874Y0529779D02*
D03*
X0301661Y0516787D02*
D03*
X0312644Y0480291D02*
D03*
X0317803Y0478008D02*
D03*
X0314928Y0481944D02*
D03*
X0312448Y0490881D02*
D03*
X0310402Y0491787D02*
D03*
X0296504Y0498047D02*
D03*
X0328471Y0519306D02*
D03*
X0332679Y0519905D02*
D03*
X0340390Y0573445D02*
D03*
X0319181Y0574661D02*
D03*
X0310717Y0526157D02*
D03*
X0312134Y0549622D02*
D03*
X0312094Y0546000D02*
D03*
X0312283Y0553519D02*
D03*
X0312370Y0561708D02*
D03*
X0312409Y0557811D02*
D03*
X0312724Y0565842D02*
D03*
X0289496Y0446590D02*
D03*
X0412843Y0445527D02*
D03*
X0419929Y0451826D02*
D03*
X0370480Y0480173D02*
D03*
X0371110Y0543559D02*
D03*
X0426228Y0493165D02*
D03*
X0416780Y0455842D02*
D03*
X0407213Y0567417D02*
D03*
X0402035Y0471000D02*
D03*
X0377291Y0469267D02*
D03*
X0368276Y0467496D02*
D03*
X0375047Y0543559D02*
D03*
X0421937Y0519740D02*
D03*
X0421740Y0526708D02*
D03*
X0421307Y0536984D02*
D03*
X0419929Y0446315D02*
D03*
X0404535Y0446000D02*
D03*
X0387035D02*
D03*
X0369811Y0446905D02*
D03*
X0368158Y0451944D02*
D03*
X0364024Y0567811D02*
D03*
X0384735Y0520800D02*
D03*
X0410535Y0515161D02*
D03*
X0367535Y0480000D02*
D03*
X0390535Y0468000D02*
D03*
Y0493000D02*
D03*
X0375441Y0529779D02*
D03*
X0376228Y0516787D02*
D03*
X0387211Y0480291D02*
D03*
X0392370Y0478008D02*
D03*
X0389495Y0481944D02*
D03*
X0387015Y0490881D02*
D03*
X0384968Y0491787D02*
D03*
X0371071Y0498047D02*
D03*
X0403038Y0519306D02*
D03*
X0407246Y0519905D02*
D03*
X0414957Y0573445D02*
D03*
X0393748Y0574661D02*
D03*
X0385283Y0526157D02*
D03*
X0386701Y0549622D02*
D03*
X0386661Y0546000D02*
D03*
X0386850Y0553519D02*
D03*
X0386937Y0561708D02*
D03*
X0386976Y0557811D02*
D03*
X0387291Y0565842D02*
D03*
X0364063Y0446590D02*
D03*
X0487409Y0445527D02*
D03*
X0494496Y0451826D02*
D03*
X0445047Y0480173D02*
D03*
X0445677Y0543559D02*
D03*
X0500795Y0493165D02*
D03*
X0491346Y0455842D02*
D03*
X0481779Y0567417D02*
D03*
X0476602Y0471000D02*
D03*
X0451858Y0469267D02*
D03*
X0442842Y0467496D02*
D03*
X0449614Y0543559D02*
D03*
X0496504Y0519740D02*
D03*
X0496307Y0526708D02*
D03*
X0495874Y0536984D02*
D03*
X0494496Y0446315D02*
D03*
X0479102Y0446000D02*
D03*
X0461602D02*
D03*
X0444378Y0446905D02*
D03*
X0442724Y0451944D02*
D03*
X0438590Y0567811D02*
D03*
X0459302Y0520800D02*
D03*
X0485102Y0515161D02*
D03*
X0442102Y0480000D02*
D03*
X0465102Y0468000D02*
D03*
Y0493000D02*
D03*
X0450008Y0529779D02*
D03*
X0450795Y0516787D02*
D03*
X0461778Y0480291D02*
D03*
X0466937Y0478008D02*
D03*
X0464062Y0481944D02*
D03*
X0461581Y0490881D02*
D03*
X0459535Y0491787D02*
D03*
X0445638Y0498047D02*
D03*
X0477605Y0519306D02*
D03*
X0481813Y0519905D02*
D03*
X0489524Y0573445D02*
D03*
X0468315Y0574661D02*
D03*
X0459850Y0526157D02*
D03*
X0461268Y0549622D02*
D03*
X0461228Y0546000D02*
D03*
X0461417Y0553519D02*
D03*
X0461504Y0561708D02*
D03*
X0461543Y0557811D02*
D03*
X0461858Y0565842D02*
D03*
X0438630Y0446590D02*
D03*
D39*
X0315913Y0251323D02*
D03*
X0315835Y0248882D02*
D03*
X0315795Y0243843D02*
D03*
X0315913Y0241323D02*
D03*
X0300520Y0246402D02*
D03*
X0302764Y0246441D02*
D03*
X0315835D02*
D03*
X0318158Y0246402D02*
D03*
X0320284D02*
D03*
X0343969Y0254850D02*
D03*
X0340968Y0252850D02*
D03*
X0338551Y0251047D02*
D03*
X0335953Y0249197D02*
D03*
X0344142Y0237976D02*
D03*
X0341465Y0239591D02*
D03*
X0338433Y0241677D02*
D03*
X0335835Y0243331D02*
D03*
X0348236Y0246402D02*
D03*
X0346150Y0246441D02*
D03*
X0344102Y0246402D02*
D03*
X0342016Y0246362D02*
D03*
X0339968D02*
D03*
X0337921D02*
D03*
X0335913Y0246402D02*
D03*
X0333866Y0246441D02*
D03*
X0322134Y0244370D02*
D03*
Y0248370D02*
D03*
X0332134D02*
D03*
Y0244370D02*
D03*
X0327134D02*
D03*
Y0248370D02*
D03*
X0323134Y0246370D02*
D03*
X0325134D02*
D03*
X0327134D02*
D03*
X0329134D02*
D03*
X0331134D02*
D03*
X0304969Y0246402D02*
D03*
X0390480Y0251323D02*
D03*
X0390402Y0248882D02*
D03*
X0390362Y0243843D02*
D03*
X0390480Y0241323D02*
D03*
X0375087Y0246402D02*
D03*
X0377331Y0246441D02*
D03*
X0390402D02*
D03*
X0392724Y0246402D02*
D03*
X0394850D02*
D03*
X0418535Y0254850D02*
D03*
X0415535Y0252850D02*
D03*
X0413118Y0251047D02*
D03*
X0410520Y0249197D02*
D03*
X0418709Y0237976D02*
D03*
X0416032Y0239591D02*
D03*
X0413000Y0241677D02*
D03*
X0410402Y0243331D02*
D03*
X0422803Y0246402D02*
D03*
X0420716Y0246441D02*
D03*
X0418669Y0246402D02*
D03*
X0416583Y0246362D02*
D03*
X0414535D02*
D03*
X0412488D02*
D03*
X0410480Y0246402D02*
D03*
X0408433Y0246441D02*
D03*
X0396701Y0244370D02*
D03*
Y0248370D02*
D03*
X0406701D02*
D03*
Y0244370D02*
D03*
X0401701D02*
D03*
Y0248370D02*
D03*
X0397701Y0246370D02*
D03*
X0399701D02*
D03*
X0401701D02*
D03*
X0403701D02*
D03*
X0405701D02*
D03*
X0379535Y0246402D02*
D03*
X0465047Y0251323D02*
D03*
X0464968Y0248882D02*
D03*
X0464929Y0243843D02*
D03*
X0465047Y0241323D02*
D03*
X0449653Y0246402D02*
D03*
X0451898Y0246441D02*
D03*
X0464968D02*
D03*
X0467291Y0246402D02*
D03*
X0469417D02*
D03*
X0493102Y0254850D02*
D03*
X0490102Y0252850D02*
D03*
X0487685Y0251047D02*
D03*
X0485087Y0249197D02*
D03*
X0493276Y0237976D02*
D03*
X0490598Y0239591D02*
D03*
X0487567Y0241677D02*
D03*
X0484969Y0243331D02*
D03*
X0497370Y0246402D02*
D03*
X0495283Y0246441D02*
D03*
X0493236Y0246402D02*
D03*
X0491150Y0246362D02*
D03*
X0489102D02*
D03*
X0487055D02*
D03*
X0485047Y0246402D02*
D03*
X0483000Y0246441D02*
D03*
X0471268Y0244370D02*
D03*
Y0248370D02*
D03*
X0481268D02*
D03*
Y0244370D02*
D03*
X0476268D02*
D03*
Y0248370D02*
D03*
X0472268Y0246370D02*
D03*
X0474268D02*
D03*
X0476268D02*
D03*
X0478268D02*
D03*
X0480268D02*
D03*
X0454102Y0246402D02*
D03*
X0315913Y0511472D02*
D03*
X0315835Y0509031D02*
D03*
X0315795Y0503992D02*
D03*
X0315913Y0501472D02*
D03*
X0300520Y0506551D02*
D03*
X0302764Y0506590D02*
D03*
X0315835D02*
D03*
X0318158Y0506551D02*
D03*
X0320284D02*
D03*
X0343969Y0515000D02*
D03*
X0340968Y0513000D02*
D03*
X0338551Y0511197D02*
D03*
X0335953Y0509346D02*
D03*
X0344142Y0498126D02*
D03*
X0341465Y0499740D02*
D03*
X0338433Y0501826D02*
D03*
X0335835Y0503480D02*
D03*
X0348236Y0506551D02*
D03*
X0346150Y0506590D02*
D03*
X0344102Y0506551D02*
D03*
X0342016Y0506511D02*
D03*
X0339968D02*
D03*
X0337921D02*
D03*
X0335913Y0506551D02*
D03*
X0333866Y0506590D02*
D03*
X0322134Y0504519D02*
D03*
Y0508519D02*
D03*
X0332134D02*
D03*
Y0504519D02*
D03*
X0327134D02*
D03*
Y0508519D02*
D03*
X0323134Y0506519D02*
D03*
X0325134D02*
D03*
X0327134D02*
D03*
X0329134D02*
D03*
X0331134D02*
D03*
X0304969Y0506551D02*
D03*
X0390480Y0511472D02*
D03*
X0390402Y0509031D02*
D03*
X0390362Y0503992D02*
D03*
X0390480Y0501472D02*
D03*
X0375087Y0506551D02*
D03*
X0377331Y0506590D02*
D03*
X0390402D02*
D03*
X0392724Y0506551D02*
D03*
X0394850D02*
D03*
X0418535Y0515000D02*
D03*
X0415535Y0513000D02*
D03*
X0413118Y0511197D02*
D03*
X0410520Y0509346D02*
D03*
X0418709Y0498126D02*
D03*
X0416032Y0499740D02*
D03*
X0413000Y0501826D02*
D03*
X0410402Y0503480D02*
D03*
X0422803Y0506551D02*
D03*
X0420716Y0506590D02*
D03*
X0418669Y0506551D02*
D03*
X0416583Y0506511D02*
D03*
X0414535D02*
D03*
X0412488D02*
D03*
X0410480Y0506551D02*
D03*
X0408433Y0506590D02*
D03*
X0396701Y0504519D02*
D03*
Y0508519D02*
D03*
X0406701D02*
D03*
Y0504519D02*
D03*
X0401701D02*
D03*
Y0508519D02*
D03*
X0397701Y0506519D02*
D03*
X0399701D02*
D03*
X0401701D02*
D03*
X0403701D02*
D03*
X0405701D02*
D03*
X0379535Y0506551D02*
D03*
X0465047Y0511472D02*
D03*
X0464968Y0509031D02*
D03*
X0464929Y0503992D02*
D03*
X0465047Y0501472D02*
D03*
X0449653Y0506551D02*
D03*
X0451898Y0506590D02*
D03*
X0464968D02*
D03*
X0467291Y0506551D02*
D03*
X0469417D02*
D03*
X0493102Y0515000D02*
D03*
X0490102Y0513000D02*
D03*
X0487685Y0511197D02*
D03*
X0485087Y0509346D02*
D03*
X0493276Y0498126D02*
D03*
X0490598Y0499740D02*
D03*
X0487567Y0501826D02*
D03*
X0484969Y0503480D02*
D03*
X0497370Y0506551D02*
D03*
X0495283Y0506590D02*
D03*
X0493236Y0506551D02*
D03*
X0491150Y0506511D02*
D03*
X0489102D02*
D03*
X0487055D02*
D03*
X0485047Y0506551D02*
D03*
X0483000Y0506590D02*
D03*
X0471268Y0504519D02*
D03*
Y0508519D02*
D03*
X0481268D02*
D03*
Y0504519D02*
D03*
X0476268D02*
D03*
Y0508519D02*
D03*
X0472268Y0506519D02*
D03*
X0474268D02*
D03*
X0476268D02*
D03*
X0478268D02*
D03*
X0480268D02*
D03*
X0454102Y0506551D02*
D03*
D40*
X0301969Y0246350D02*
X0312469D01*
X0294468D02*
X0301969D01*
X0328969D02*
X0346468D01*
X0324969D02*
X0326969D01*
X0312469D02*
X0320969D01*
X0291071Y0249512D02*
X0291307D01*
X0294468Y0246350D01*
X0376535D02*
X0387035D01*
X0369035D02*
X0376535D01*
X0403535D02*
X0421035D01*
X0399535D02*
X0401535D01*
X0387035D02*
X0395535D01*
X0365638Y0249512D02*
X0365874D01*
X0369035Y0246350D01*
X0451102D02*
X0461602D01*
X0443602D02*
X0451102D01*
X0478102D02*
X0495602D01*
X0474102D02*
X0476102D01*
X0461602D02*
X0470102D01*
X0440205Y0249512D02*
X0440441D01*
X0443602Y0246350D01*
X0301969Y0506500D02*
X0312469D01*
X0294468D02*
X0301969D01*
X0328969D02*
X0346468D01*
X0324969D02*
X0326969D01*
X0312469D02*
X0320969D01*
X0291071Y0509661D02*
X0291307D01*
X0294468Y0506500D01*
X0376535D02*
X0387035D01*
X0369035D02*
X0376535D01*
X0403535D02*
X0421035D01*
X0399535D02*
X0401535D01*
X0387035D02*
X0395535D01*
X0365638Y0509661D02*
X0365874D01*
X0369035Y0506500D01*
X0451102D02*
X0461602D01*
X0443602D02*
X0451102D01*
X0478102D02*
X0495602D01*
X0474102D02*
X0476102D01*
X0461602D02*
X0470102D01*
X0440205Y0509661D02*
X0440441D01*
X0443602Y0506500D01*
D41*
X0315968Y0207850D02*
Y0215850D01*
X0390535Y0207850D02*
Y0215850D01*
X0465102Y0207850D02*
Y0215850D01*
X0315968Y0468000D02*
Y0476000D01*
X0390535Y0468000D02*
Y0476000D01*
X0465102Y0468000D02*
Y0476000D01*
D42*
X0301969Y0246350D02*
Y0274898D01*
X0312283Y0285213D01*
Y0305339D01*
X0376535Y0246350D02*
Y0274898D01*
X0386850Y0285213D01*
Y0305339D01*
X0451102Y0246350D02*
Y0274898D01*
X0461417Y0285213D01*
Y0305339D01*
X0301969Y0506500D02*
Y0535047D01*
X0312283Y0545362D01*
Y0565488D01*
X0376535Y0506500D02*
Y0535047D01*
X0386850Y0545362D01*
Y0565488D01*
X0451102Y0506500D02*
Y0535047D01*
X0461417Y0545362D01*
Y0565488D01*
M02*
