G04*
G04 #@! TF.GenerationSoftware,Altium Limited,Altium Designer,18.1.9 (240)*
G04*
G04 Layer_Color=8421504*
%FSAX25Y25*%
%MOIN*%
G70*
G01*
G75*
%ADD10C,0.03937*%
%ADD11R,0.13386X0.05315*%
%ADD12R,0.02953X0.03543*%
%ADD13R,0.03543X0.02953*%
%ADD14R,0.03150X0.03937*%
%ADD15R,0.15000X0.09449*%
%ADD16R,0.04528X0.06890*%
%ADD17R,0.06496X0.08661*%
%ADD18R,0.03740X0.03347*%
%ADD19R,0.04331X0.05315*%
%ADD20R,0.05315X0.13386*%
%ADD21R,0.04921X0.06890*%
%ADD22R,0.11417X0.06693*%
%ADD23O,0.01772X0.04724*%
D10*
X0524000Y0552819D02*
D03*
X0262500D02*
D03*
Y0165181D02*
D03*
D11*
X0300913Y0288862D02*
D03*
Y0304807D02*
D03*
X0292882Y0214846D02*
D03*
Y0198902D02*
D03*
X0375480Y0288862D02*
D03*
Y0304807D02*
D03*
X0367449Y0214846D02*
D03*
Y0198902D02*
D03*
X0450047Y0288862D02*
D03*
Y0304807D02*
D03*
X0442016Y0214846D02*
D03*
Y0198902D02*
D03*
X0300913Y0549012D02*
D03*
Y0564956D02*
D03*
X0292882Y0474996D02*
D03*
Y0459051D02*
D03*
X0375480Y0549012D02*
D03*
Y0564956D02*
D03*
X0367449Y0474996D02*
D03*
Y0459051D02*
D03*
X0450047Y0549012D02*
D03*
Y0564956D02*
D03*
X0442016Y0474996D02*
D03*
Y0459051D02*
D03*
D12*
X0329161Y0263370D02*
D03*
X0323453D02*
D03*
X0329161Y0270850D02*
D03*
X0323453D02*
D03*
X0403728Y0263370D02*
D03*
X0398020D02*
D03*
X0403728Y0270850D02*
D03*
X0398020D02*
D03*
X0478295Y0263370D02*
D03*
X0472587D02*
D03*
X0478295Y0270850D02*
D03*
X0472587D02*
D03*
X0329161Y0523519D02*
D03*
X0323453D02*
D03*
X0329161Y0531000D02*
D03*
X0323453D02*
D03*
X0403728Y0523519D02*
D03*
X0398020D02*
D03*
X0403728Y0531000D02*
D03*
X0398020D02*
D03*
X0478295Y0523519D02*
D03*
X0472587D02*
D03*
X0478295Y0531000D02*
D03*
X0472587D02*
D03*
D13*
X0305992Y0266146D02*
D03*
Y0260437D02*
D03*
X0306583Y0278823D02*
D03*
Y0273114D02*
D03*
X0312213Y0247957D02*
D03*
Y0253665D02*
D03*
X0311858Y0235831D02*
D03*
Y0241539D02*
D03*
X0380559Y0266146D02*
D03*
Y0260437D02*
D03*
X0381150Y0278823D02*
D03*
Y0273114D02*
D03*
X0386779Y0247957D02*
D03*
Y0253665D02*
D03*
X0386425Y0235831D02*
D03*
Y0241539D02*
D03*
X0455126Y0266146D02*
D03*
Y0260437D02*
D03*
X0455717Y0278823D02*
D03*
Y0273114D02*
D03*
X0461346Y0247957D02*
D03*
Y0253665D02*
D03*
X0460992Y0235831D02*
D03*
Y0241539D02*
D03*
X0305992Y0526295D02*
D03*
Y0520586D02*
D03*
X0306583Y0538972D02*
D03*
Y0533263D02*
D03*
X0312213Y0508106D02*
D03*
Y0513815D02*
D03*
X0311858Y0495980D02*
D03*
Y0501689D02*
D03*
X0380559Y0526295D02*
D03*
Y0520586D02*
D03*
X0381150Y0538972D02*
D03*
Y0533263D02*
D03*
X0386779Y0508106D02*
D03*
Y0513815D02*
D03*
X0386425Y0495980D02*
D03*
Y0501689D02*
D03*
X0455126Y0526295D02*
D03*
Y0520586D02*
D03*
X0455717Y0538972D02*
D03*
Y0533263D02*
D03*
X0461346Y0508106D02*
D03*
Y0513815D02*
D03*
X0460992Y0495980D02*
D03*
Y0501689D02*
D03*
D14*
X0342465Y0263350D02*
D03*
X0335968D02*
D03*
X0342465Y0270850D02*
D03*
X0335968D02*
D03*
X0417031Y0263350D02*
D03*
X0410535D02*
D03*
X0417031Y0270850D02*
D03*
X0410535D02*
D03*
X0491598Y0263350D02*
D03*
X0485102D02*
D03*
X0491598Y0270850D02*
D03*
X0485102D02*
D03*
X0342465Y0523500D02*
D03*
X0335968D02*
D03*
X0342465Y0531000D02*
D03*
X0335968D02*
D03*
X0417031Y0523500D02*
D03*
X0410535D02*
D03*
X0417031Y0531000D02*
D03*
X0410535D02*
D03*
X0491598Y0523500D02*
D03*
X0485102D02*
D03*
X0491598Y0531000D02*
D03*
X0485102D02*
D03*
D15*
X0310362Y0201716D02*
D03*
X0330362D02*
D03*
X0384929D02*
D03*
X0404929D02*
D03*
X0459496D02*
D03*
X0479496D02*
D03*
X0310362Y0461866D02*
D03*
X0330362D02*
D03*
X0384929D02*
D03*
X0404929D02*
D03*
X0459496D02*
D03*
X0479496D02*
D03*
D16*
X0336405Y0284591D02*
D03*
X0348020D02*
D03*
X0410972D02*
D03*
X0422587D02*
D03*
X0485539D02*
D03*
X0497154D02*
D03*
X0336405Y0544740D02*
D03*
X0348020D02*
D03*
X0410972D02*
D03*
X0422587D02*
D03*
X0485539D02*
D03*
X0497154D02*
D03*
D17*
X0295480Y0229827D02*
D03*
Y0245575D02*
D03*
X0344969Y0207976D02*
D03*
Y0223724D02*
D03*
X0370047Y0229827D02*
D03*
Y0245575D02*
D03*
X0419535Y0207976D02*
D03*
Y0223724D02*
D03*
X0444614Y0229827D02*
D03*
Y0245575D02*
D03*
X0494102Y0207976D02*
D03*
Y0223724D02*
D03*
X0295480Y0489976D02*
D03*
Y0505724D02*
D03*
X0344969Y0468126D02*
D03*
Y0483874D02*
D03*
X0370047Y0489976D02*
D03*
Y0505724D02*
D03*
X0419535Y0468126D02*
D03*
Y0483874D02*
D03*
X0444614Y0489976D02*
D03*
Y0505724D02*
D03*
X0494102Y0468126D02*
D03*
Y0483874D02*
D03*
D18*
X0316347Y0270850D02*
D03*
Y0265732D02*
D03*
X0390913Y0270850D02*
D03*
Y0265732D02*
D03*
X0465480Y0270850D02*
D03*
Y0265732D02*
D03*
X0316347Y0531000D02*
D03*
Y0525881D02*
D03*
X0390913Y0531000D02*
D03*
Y0525881D02*
D03*
X0465480Y0531000D02*
D03*
Y0525881D02*
D03*
D19*
X0334988Y0225457D02*
D03*
X0327705D02*
D03*
X0311760Y0227661D02*
D03*
X0319043D02*
D03*
X0409555Y0225457D02*
D03*
X0402272D02*
D03*
X0386327Y0227661D02*
D03*
X0393610D02*
D03*
X0484122Y0225457D02*
D03*
X0476839D02*
D03*
X0460894Y0227661D02*
D03*
X0468177D02*
D03*
X0334988Y0485606D02*
D03*
X0327705D02*
D03*
X0311760Y0487811D02*
D03*
X0319043D02*
D03*
X0409555Y0485606D02*
D03*
X0402272D02*
D03*
X0386327Y0487811D02*
D03*
X0393610D02*
D03*
X0484122Y0485606D02*
D03*
X0476839D02*
D03*
X0460894Y0487811D02*
D03*
X0468177D02*
D03*
D20*
X0321012Y0300535D02*
D03*
X0344437D02*
D03*
X0395579D02*
D03*
X0419004D02*
D03*
X0470146D02*
D03*
X0493571D02*
D03*
X0321012Y0560685D02*
D03*
X0344437D02*
D03*
X0395579D02*
D03*
X0419004D02*
D03*
X0470146D02*
D03*
X0493571D02*
D03*
D21*
X0327980Y0280772D02*
D03*
X0316760D02*
D03*
X0402547D02*
D03*
X0391327D02*
D03*
X0477114D02*
D03*
X0465894D02*
D03*
X0327980Y0540921D02*
D03*
X0316760D02*
D03*
X0402547D02*
D03*
X0391327D02*
D03*
X0477114D02*
D03*
X0465894D02*
D03*
D22*
X0327134Y0246370D02*
D03*
X0401701D02*
D03*
X0476268D02*
D03*
X0327134Y0506519D02*
D03*
X0401701D02*
D03*
X0476268D02*
D03*
D23*
X0320736Y0237709D02*
D03*
X0323295D02*
D03*
X0325854D02*
D03*
X0328413D02*
D03*
X0330972D02*
D03*
X0333531D02*
D03*
X0320736Y0255031D02*
D03*
X0323295D02*
D03*
X0325854D02*
D03*
X0328413D02*
D03*
X0330972D02*
D03*
X0333531D02*
D03*
X0395303Y0237709D02*
D03*
X0397862D02*
D03*
X0400421D02*
D03*
X0402980D02*
D03*
X0405539D02*
D03*
X0408098D02*
D03*
X0395303Y0255031D02*
D03*
X0397862D02*
D03*
X0400421D02*
D03*
X0402980D02*
D03*
X0405539D02*
D03*
X0408098D02*
D03*
X0469870Y0237709D02*
D03*
X0472429D02*
D03*
X0474988D02*
D03*
X0477547D02*
D03*
X0480106D02*
D03*
X0482665D02*
D03*
X0469870Y0255031D02*
D03*
X0472429D02*
D03*
X0474988D02*
D03*
X0477547D02*
D03*
X0480106D02*
D03*
X0482665D02*
D03*
X0320736Y0497858D02*
D03*
X0323295D02*
D03*
X0325854D02*
D03*
X0328413D02*
D03*
X0330972D02*
D03*
X0333531D02*
D03*
X0320736Y0515181D02*
D03*
X0323295D02*
D03*
X0325854D02*
D03*
X0328413D02*
D03*
X0330972D02*
D03*
X0333531D02*
D03*
X0395303Y0497858D02*
D03*
X0397862D02*
D03*
X0400421D02*
D03*
X0402980D02*
D03*
X0405539D02*
D03*
X0408098D02*
D03*
X0395303Y0515181D02*
D03*
X0397862D02*
D03*
X0400421D02*
D03*
X0402980D02*
D03*
X0405539D02*
D03*
X0408098D02*
D03*
X0469870Y0497858D02*
D03*
X0472429D02*
D03*
X0474988D02*
D03*
X0477547D02*
D03*
X0480106D02*
D03*
X0482665D02*
D03*
X0469870Y0515181D02*
D03*
X0472429D02*
D03*
X0474988D02*
D03*
X0477547D02*
D03*
X0480106D02*
D03*
X0482665D02*
D03*
M02*
