G04*
G04 #@! TF.GenerationSoftware,Altium Limited,Altium Designer,18.1.9 (240)*
G04*
G04 Layer_Color=16711935*
%FSAX25Y25*%
%MOIN*%
G70*
G01*
G75*
%ADD43C,0.00787*%
D43*
X0243500Y0617500D02*
X0243500Y0099000D01*
X0243500Y0617500D02*
X0544500D01*
X0544500Y0099000D01*
X0243500D02*
X0544500D01*
X0306908Y0357181D02*
X0355598D01*
Y0099000D02*
Y0357181D01*
X0283000Y0099000D02*
Y0357181D01*
X0306908D01*
X0283000Y0099000D02*
X0355598D01*
X0381475Y0357181D02*
X0430165D01*
Y0099000D02*
Y0357181D01*
X0357567Y0099000D02*
Y0357181D01*
X0381475D01*
X0357567Y0099000D02*
X0430165D01*
X0456042Y0357181D02*
X0504732D01*
Y0099000D02*
Y0357181D01*
X0432134Y0099000D02*
Y0357181D01*
X0456042D01*
X0432134Y0099000D02*
X0504732D01*
X0306908Y0617330D02*
X0355598D01*
Y0359149D02*
Y0617330D01*
X0283000Y0359149D02*
Y0617330D01*
X0306908D01*
X0283000Y0359149D02*
X0355598D01*
X0381475Y0617330D02*
X0430165D01*
Y0359149D02*
Y0617330D01*
X0357567Y0359149D02*
Y0617330D01*
X0381475D01*
X0357567Y0359149D02*
X0430165D01*
X0456042Y0617330D02*
X0504732D01*
Y0359149D02*
Y0617330D01*
X0432134Y0359149D02*
Y0617330D01*
X0456042D01*
X0432134Y0359149D02*
X0504732D01*
M02*
