M48
;Layer_Color=9474304
;FILE_FORMAT=2:5
INCH
;TYPE=PLATED
T1F00S00C0.01181
T2F00S00C0.01575
T3F00S00C0.03543
T4F00S00C0.05512
;TYPE=NON_PLATED
T5F00S00C0.12598
%
T01
X0471268Y0244370
X0472268Y0246370
X0474268
X0476268
Y0244370
Y0248370
X0478268Y0246370
X0480268
X0483000Y0246441
X0485047Y0246402
X0487055Y0246362
X0489102
X0491150
X0493236Y0246402
X0495283Y0246441
X0497370Y0246402
X0493276Y0237976
X0490598Y0239591
X0487567Y0241677
X0484969Y0243331
X0481268Y0244370
Y0248370
X0485087Y0249197
X0487685Y0251047
X0490102Y0252850
X0493102Y0254850
X0471268Y0248370
X0469417Y0246402
X0467291
X0464968Y0246441
Y0248882
X0465047Y0251323
X0464929Y0243843
X0465047Y0241323
X0454102Y0246402
X0451898Y0246441
X0449653Y0246402
X0422803
X0420716Y0246441
X0418669Y0246402
X0416583Y0246362
X0414535
X0412488
X0410480Y0246402
X0408433Y0246441
X0405701Y0246370
X0403701
X0401701
Y0244370
Y0248370
X0399701Y0246370
X0397701
X0394850Y0246402
X0392724
X0390402Y0246441
Y0248882
X0390480Y0251323
X0390362Y0243843
X0390480Y0241323
X0396701Y0244370
Y0248370
X0406701
Y0244370
X0410402Y0243331
X0413000Y0241677
X0416032Y0239591
X0418709Y0237976
X0418535Y0254850
X0415535Y0252850
X0413118Y0251047
X0410520Y0249197
X0379535Y0246402
X0377331Y0246441
X0375087Y0246402
X0348236
X0346150Y0246441
X0344102Y0246402
X0342016Y0246362
X0339968
X0337921
X0335913Y0246402
X0333866Y0246441
X0331134Y0246370
X0329134
X0327134
Y0244370
Y0248370
X0325134Y0246370
X0323134
X0320284Y0246402
X0318158
X0315835Y0246441
Y0248882
X0315913Y0251323
X0315795Y0243843
X0315913Y0241323
X0322134Y0244370
Y0248370
X0332134
Y0244370
X0335835Y0243331
X0338433Y0241677
X0341465Y0239591
X0344142Y0237976
X0343969Y0254850
X0340968Y0252850
X0338551Y0251047
X0335953Y0249197
X0304969Y0246402
X0302764Y0246441
X0300520Y0246402
X0471268Y0504519
X0472268Y0506519
X0474268
X0476268
Y0504519
Y0508519
X0478268Y0506519
X0480268
X0483000Y0506590
X0485047Y0506551
X0487055Y0506511
X0489102
X0491150
X0493236Y0506551
X0495283Y0506590
X0497370Y0506551
X0493276Y0498126
X0490598Y0499740
X0487567Y0501826
X0484969Y0503480
X0481268Y0504519
Y0508519
X0485087Y0509346
X0487685Y0511197
X0490102Y0513000
X0493102Y0515000
X0471268Y0508519
X0469417Y0506551
X0467291
X0464968Y0506590
Y0509031
X0465047Y0511472
X0464929Y0503992
X0465047Y0501472
X0454102Y0506551
X0451898Y0506590
X0449653Y0506551
X0422803
X0420716Y0506590
X0418669Y0506551
X0416583Y0506511
X0414535
X0412488
X0410480Y0506551
X0408433Y0506590
X0405701Y0506519
X0403701
X0401701
Y0504519
Y0508519
X0399701Y0506519
X0397701
X0394850Y0506551
X0392724
X0390402Y0506590
Y0509031
X0390480Y0511472
X0390362Y0503992
X0390480Y0501472
X0396701Y0504519
Y0508519
X0406701
Y0504519
X0410402Y0503480
X0413000Y0501826
X0416032Y0499740
X0418709Y0498126
X0418535Y0515000
X0415535Y0513000
X0413118Y0511197
X0410520Y0509346
X0379535Y0506551
X0377331Y0506590
X0375087Y0506551
X0348236
X0346150Y0506590
X0344102Y0506551
X0342016Y0506511
X0339968
X0337921
X0335913Y0506551
X0333866Y0506590
X0331134Y0506519
X0329134
X0327134
Y0504519
Y0508519
X0325134Y0506519
X0323134
X0320284Y0506551
X0318158
X0315835Y0506590
Y0509031
X0315913Y0511472
X0315795Y0503992
X0315913Y0501472
X0322134Y0504519
Y0508519
X0332134
Y0504519
X0335835Y0503480
X0338433Y0501826
X0341465Y0499740
X0344142Y0498126
X0343969Y0515000
X0340968Y0513000
X0338551Y0511197
X0335953Y0509346
X0304969Y0506551
X0302764Y0506590
X0300520Y0506551
T02
X0479102Y0185850
X0487409Y0185378
X0494496Y0186165
Y0191677
X0491346Y0195693
X0476602Y0210850
X0500795Y0233016
X0496504Y0259591
X0496307Y0266559
X0495874Y0276835
X0481813Y0259756
X0477605Y0259157
X0485102Y0255012
X0481779Y0307268
X0461858Y0305693
X0461504Y0301559
X0461543Y0297661
X0461417Y0293370
X0461268Y0289472
X0461228Y0285850
X0449614Y0283410
X0445677
X0450008Y0269630
X0459850Y0266008
X0459302Y0260650
X0450795Y0256638
X0445638Y0237898
X0445047Y0220024
X0442102Y0219850
X0442842Y0207347
X0451858Y0209118
X0465102Y0207850
X0466937Y0217858
X0464062Y0221795
X0461778Y0220141
X0461581Y0230732
X0459535Y0231638
X0465102Y0232850
X0426228Y0233016
X0421937Y0259591
X0421740Y0266559
X0421307Y0276835
X0407246Y0259756
X0403038Y0259157
X0410535Y0255012
X0384735Y0260650
X0385283Y0266008
X0375441Y0269630
X0376228Y0256638
X0371071Y0237898
X0370480Y0220024
X0367535Y0219850
X0368276Y0207347
X0377291Y0209118
X0390535Y0207850
X0392370Y0217858
X0389495Y0221795
X0387211Y0220141
X0387015Y0230732
X0384968Y0231638
X0390535Y0232850
X0402035Y0210850
X0404535Y0185850
X0412843Y0185378
X0419929Y0186165
Y0191677
X0416780Y0195693
X0442724Y0191795
X0444378Y0186756
X0438630Y0186441
X0461602Y0185850
X0387035
X0369811Y0186756
X0364063Y0186441
X0368158Y0191795
X0345362Y0191677
Y0186165
X0338276Y0185378
X0329969Y0185850
X0342213Y0195693
X0327468Y0210850
X0315968Y0207850
X0317803Y0217858
X0314928Y0221795
X0312644Y0220141
X0315968Y0232850
X0351661Y0233016
X0347370Y0259591
X0347173Y0266559
X0346740Y0276835
X0371110Y0283410
X0375047
X0386661Y0285850
X0386701Y0289472
X0386850Y0293370
X0386976Y0297661
X0386937Y0301559
X0387291Y0305693
X0407213Y0307268
X0438590Y0307661
X0364024
X0332646Y0307268
X0312724Y0305693
X0328471Y0259157
X0332679Y0259756
X0335968Y0255012
X0310169Y0260650
X0310717Y0266008
X0300874Y0269630
X0301661Y0256638
X0296504Y0237898
X0295913Y0220024
X0292969Y0219850
X0293709Y0207347
X0302724Y0209118
X0293590Y0191795
X0295244Y0186756
X0289496Y0186441
X0312469Y0185850
X0312448Y0230732
X0310402Y0231638
X0312094Y0285850
X0312134Y0289472
X0312283Y0293370
X0312409Y0297661
X0312370Y0301559
X0289457Y0307661
X0296543Y0283410
X0300480
X0295244Y0446905
X0289496Y0446590
X0293590Y0451944
X0293709Y0467496
X0312469Y0446000
X0329969
X0338276Y0445527
X0345362Y0446315
Y0451826
X0342213Y0455842
X0368158Y0451944
X0369811Y0446905
X0364063Y0446590
X0387035Y0446000
X0404535
X0412843Y0445527
X0419929Y0446315
Y0451826
X0416780Y0455842
X0442724Y0451944
X0444378Y0446905
X0438630Y0446590
X0461602Y0446000
X0465102Y0468000
X0442842Y0467496
X0390535Y0468000
X0368276Y0467496
X0315968Y0468000
X0319181Y0314512
X0340390Y0313295
X0393748Y0314512
X0414957Y0313295
X0468315Y0314512
X0489524Y0313295
X0487409Y0445527
X0494496Y0446315
Y0451826
X0491346Y0455842
X0479102Y0446000
X0476602Y0471000
X0500795Y0493165
X0496504Y0519740
X0496307Y0526708
X0495874Y0536984
X0481813Y0519905
X0477605Y0519306
X0485102Y0515161
X0481779Y0567417
X0489524Y0573445
X0468315Y0574661
X0461858Y0565842
X0461504Y0561708
X0461543Y0557811
X0461417Y0553519
X0461268Y0549622
X0461228Y0546000
X0449614Y0543559
X0445677
X0450008Y0529779
X0459850Y0526157
X0459302Y0520800
X0450795Y0516787
X0445638Y0498047
X0445047Y0480173
X0442102Y0480000
X0461778Y0480291
X0464062Y0481944
X0466937Y0478008
X0465102Y0493000
X0461581Y0490881
X0459535Y0491787
X0451858Y0469267
X0426228Y0493165
X0421937Y0519740
X0421740Y0526708
X0421307Y0536984
X0407246Y0519905
X0403038Y0519306
X0410535Y0515161
X0384735Y0520800
X0385283Y0526157
X0375441Y0529779
X0376228Y0516787
X0371071Y0498047
X0370480Y0480173
X0367535Y0480000
X0387211Y0480291
X0389495Y0481944
X0392370Y0478008
X0402035Y0471000
X0377291Y0469267
X0384968Y0491787
X0387015Y0490881
X0390535Y0493000
X0351661Y0493165
X0347370Y0519740
X0347173Y0526708
X0346740Y0536984
X0371110Y0543559
X0375047
X0386661Y0546000
X0386701Y0549622
X0386850Y0553519
X0386976Y0557811
X0386937Y0561708
X0387291Y0565842
X0393748Y0574661
X0407213Y0567417
X0414957Y0573445
X0438590Y0567811
X0364024
X0340390Y0573445
X0332646Y0567417
X0319181Y0574661
X0312724Y0565842
X0328471Y0519306
X0332679Y0519905
X0335968Y0515161
X0315968Y0493000
X0314928Y0481944
X0312644Y0480291
X0317803Y0478008
X0327468Y0471000
X0302724Y0469267
X0295913Y0480173
X0292969Y0480000
X0296504Y0498047
X0310402Y0491787
X0312448Y0490881
X0310169Y0520800
X0310717Y0526157
X0300874Y0529779
X0301661Y0516787
X0300480Y0543559
X0296543
X0312094Y0546000
X0312134Y0549622
X0312283Y0553519
X0312409Y0557811
X0312370Y0561708
X0289457Y0567811
T03
X0365520Y0175024
X0375520
X0440087
X0450087
X0300953
X0290953
Y0435173
X0300953
X0365520
X0375520
X0440087
X0450087
T04
X0322803Y0119118
X0342803Y0119158
X0397370Y0119118
X0417370Y0119158
X0471937Y0119118
X0491937Y0119158
X0419299Y0336913
X0399299Y0336874
X0397370Y0379267
X0417370Y0379307
X0342803
X0322803Y0379267
X0324732Y0336874
X0344732Y0336913
X0473866Y0336874
X0493866Y0336913
X0491937Y0379307
X0471937Y0379267
X0473866Y0597023
X0493866Y0597063
X0419299
X0399299Y0597023
X0344732Y0597063
X0324732Y0597023
T05
X0262500Y0114000
X0296779Y0113921
X0371346
X0445913
X0297134Y0343134
X0296779Y0374071
X0371346
X0371701Y0343134
X0446268
X0445913Y0374071
X0524000Y0604000
X0446268Y0603283
X0371701
X0297134
X0262500Y0604000
M30
