G04*
G04 #@! TF.GenerationSoftware,Altium Limited,Altium Designer,18.1.9 (240)*
G04*
G04 Layer_Color=16776960*
%FSAX25Y25*%
%MOIN*%
G70*
G01*
G75*
%ADD43C,0.00787*%
D43*
X0505413Y0639173D02*
X0505413Y0049114D01*
X0356496Y0049114D02*
Y0639173D01*
X0282185Y0639173D02*
X0282185Y0049114D01*
X0431102Y0639173D02*
X0431102Y0050000D01*
X0283071Y0358169D02*
X0568012D01*
X0227461D02*
X0283071D01*
X0351085Y-0001476D02*
X0355021D01*
X0356989Y0000491D01*
X0355021Y0002459D01*
X0351085D01*
X0354037Y0004427D02*
Y0008363D01*
X0358957Y0012299D02*
Y0013283D01*
X0357973Y0014267D01*
X0353053D01*
Y0011315D01*
X0354037Y0010331D01*
X0356005D01*
X0356989Y0011315D01*
Y0014267D01*
Y0017218D02*
Y0019186D01*
X0356005Y0020170D01*
X0354037D01*
X0353053Y0019186D01*
Y0017218D01*
X0354037Y0016234D01*
X0356005D01*
X0356989Y0017218D01*
Y0023122D02*
Y0025090D01*
X0356005Y0026074D01*
X0354037D01*
X0353053Y0025090D01*
Y0023122D01*
X0354037Y0022138D01*
X0356005D01*
X0356989Y0023122D01*
X0353053Y0028042D02*
X0356989D01*
X0355021D01*
X0354037Y0029026D01*
X0353053Y0030009D01*
Y0030993D01*
Y0033945D02*
X0356989Y0035913D01*
X0353053Y0037881D01*
X0356989Y0042801D02*
Y0040833D01*
X0356005Y0039849D01*
X0354037D01*
X0353053Y0040833D01*
Y0042801D01*
X0354037Y0043785D01*
X0355021D01*
Y0039849D01*
X0426380Y-0001476D02*
X0430316D01*
X0432284Y0000491D01*
X0430316Y0002459D01*
X0426380D01*
X0429332Y0004427D02*
Y0008363D01*
X0434252Y0012299D02*
Y0013283D01*
X0433268Y0014267D01*
X0428348D01*
Y0011315D01*
X0429332Y0010331D01*
X0431300D01*
X0432284Y0011315D01*
Y0014267D01*
Y0017218D02*
Y0019186D01*
X0431300Y0020170D01*
X0429332D01*
X0428348Y0019186D01*
Y0017218D01*
X0429332Y0016234D01*
X0431300D01*
X0432284Y0017218D01*
Y0023122D02*
Y0025090D01*
X0431300Y0026074D01*
X0429332D01*
X0428348Y0025090D01*
Y0023122D01*
X0429332Y0022138D01*
X0431300D01*
X0432284Y0023122D01*
X0428348Y0028042D02*
X0432284D01*
X0430316D01*
X0429332Y0029026D01*
X0428348Y0030009D01*
Y0030993D01*
Y0033945D02*
X0432284Y0035913D01*
X0428348Y0037881D01*
X0432284Y0042801D02*
Y0040833D01*
X0431300Y0039849D01*
X0429332D01*
X0428348Y0040833D01*
Y0042801D01*
X0429332Y0043785D01*
X0430316D01*
Y0039849D01*
X0279628Y0644488D02*
X0283564D01*
X0285532Y0646456D01*
X0283564Y0648424D01*
X0279628D01*
X0282580Y0650392D02*
Y0654327D01*
X0287500Y0658263D02*
Y0659247D01*
X0286516Y0660231D01*
X0281596D01*
Y0657279D01*
X0282580Y0656295D01*
X0284548D01*
X0285532Y0657279D01*
Y0660231D01*
Y0663183D02*
Y0665151D01*
X0284548Y0666135D01*
X0282580D01*
X0281596Y0665151D01*
Y0663183D01*
X0282580Y0662199D01*
X0284548D01*
X0285532Y0663183D01*
Y0669087D02*
Y0671054D01*
X0284548Y0672038D01*
X0282580D01*
X0281596Y0671054D01*
Y0669087D01*
X0282580Y0668103D01*
X0284548D01*
X0285532Y0669087D01*
X0281596Y0674006D02*
X0285532D01*
X0283564D01*
X0282580Y0674990D01*
X0281596Y0675974D01*
Y0676958D01*
Y0679910D02*
X0285532Y0681878D01*
X0281596Y0683846D01*
X0285532Y0688765D02*
Y0686797D01*
X0284548Y0685813D01*
X0282580D01*
X0281596Y0686797D01*
Y0688765D01*
X0282580Y0689749D01*
X0283564D01*
Y0685813D01*
X0571555Y0360332D02*
Y0356396D01*
X0573523Y0354429D01*
X0575491Y0356396D01*
Y0360332D01*
X0577459Y0357380D02*
X0581394D01*
X0585330Y0352461D02*
X0586314D01*
X0587298Y0353445D01*
Y0358364D01*
X0584346D01*
X0583362Y0357380D01*
Y0355412D01*
X0584346Y0354429D01*
X0587298D01*
X0590250D02*
X0592218D01*
X0593202Y0355412D01*
Y0357380D01*
X0592218Y0358364D01*
X0590250D01*
X0589266Y0357380D01*
Y0355412D01*
X0590250Y0354429D01*
X0596153D02*
X0598121D01*
X0599105Y0355412D01*
Y0357380D01*
X0598121Y0358364D01*
X0596153D01*
X0595169Y0357380D01*
Y0355412D01*
X0596153Y0354429D01*
X0601073Y0358364D02*
Y0354429D01*
Y0356396D01*
X0602057Y0357380D01*
X0603041Y0358364D01*
X0604025D01*
X0606977D02*
X0608945Y0354429D01*
X0610912Y0358364D01*
X0615832Y0354429D02*
X0613864D01*
X0612880Y0355412D01*
Y0357380D01*
X0613864Y0358364D01*
X0615832D01*
X0616816Y0357380D01*
Y0356396D01*
X0612880D01*
X0178445Y0361907D02*
Y0357971D01*
X0180413Y0356003D01*
X0182381Y0357971D01*
Y0361907D01*
X0184348Y0358955D02*
X0188284D01*
X0192220Y0354035D02*
X0193204D01*
X0194188Y0355019D01*
Y0359939D01*
X0191236D01*
X0190252Y0358955D01*
Y0356987D01*
X0191236Y0356003D01*
X0194188D01*
X0197140D02*
X0199108D01*
X0200091Y0356987D01*
Y0358955D01*
X0199108Y0359939D01*
X0197140D01*
X0196156Y0358955D01*
Y0356987D01*
X0197140Y0356003D01*
X0203043D02*
X0205011D01*
X0205995Y0356987D01*
Y0358955D01*
X0205011Y0359939D01*
X0203043D01*
X0202059Y0358955D01*
Y0356987D01*
X0203043Y0356003D01*
X0207963Y0359939D02*
Y0356003D01*
Y0357971D01*
X0208947Y0358955D01*
X0209931Y0359939D01*
X0210915D01*
X0213866D02*
X0215834Y0356003D01*
X0217802Y0359939D01*
X0222722Y0356003D02*
X0220754D01*
X0219770Y0356987D01*
Y0358955D01*
X0220754Y0359939D01*
X0222722D01*
X0223706Y0358955D01*
Y0357971D01*
X0219770D01*
X0503841Y0000787D02*
X0507777D01*
X0509745Y0002755D01*
X0507777Y0004723D01*
X0503841D01*
X0506793Y0006691D02*
Y0010627D01*
X0511713Y0014562D02*
Y0015546D01*
X0510729Y0016530D01*
X0505809D01*
Y0013578D01*
X0506793Y0012595D01*
X0508761D01*
X0509745Y0013578D01*
Y0016530D01*
Y0019482D02*
Y0021450D01*
X0508761Y0022434D01*
X0506793D01*
X0505809Y0021450D01*
Y0019482D01*
X0506793Y0018498D01*
X0508761D01*
X0509745Y0019482D01*
Y0025386D02*
Y0027354D01*
X0508761Y0028337D01*
X0506793D01*
X0505809Y0027354D01*
Y0025386D01*
X0506793Y0024402D01*
X0508761D01*
X0509745Y0025386D01*
X0505809Y0030305D02*
X0509745D01*
X0507777D01*
X0506793Y0031289D01*
X0505809Y0032273D01*
Y0033257D01*
Y0036209D02*
X0509745Y0038177D01*
X0505809Y0040145D01*
X0509745Y0045064D02*
Y0043097D01*
X0508761Y0042113D01*
X0506793D01*
X0505809Y0043097D01*
Y0045064D01*
X0506793Y0046048D01*
X0507777D01*
Y0042113D01*
X0428251Y0646358D02*
X0432186D01*
X0434154Y0648326D01*
X0432186Y0650294D01*
X0428251D01*
X0431202Y0652262D02*
Y0656198D01*
X0436122Y0660133D02*
Y0661117D01*
X0435138Y0662101D01*
X0430218D01*
Y0659149D01*
X0431202Y0658166D01*
X0433170D01*
X0434154Y0659149D01*
Y0662101D01*
Y0665053D02*
Y0667021D01*
X0433170Y0668005D01*
X0431202D01*
X0430218Y0667021D01*
Y0665053D01*
X0431202Y0664069D01*
X0433170D01*
X0434154Y0665053D01*
Y0670957D02*
Y0672925D01*
X0433170Y0673908D01*
X0431202D01*
X0430218Y0672925D01*
Y0670957D01*
X0431202Y0669973D01*
X0433170D01*
X0434154Y0670957D01*
X0430218Y0675876D02*
X0434154D01*
X0432186D01*
X0431202Y0676860D01*
X0430218Y0677844D01*
Y0678828D01*
Y0681780D02*
X0434154Y0683748D01*
X0430218Y0685716D01*
X0434154Y0690635D02*
Y0688667D01*
X0433170Y0687683D01*
X0431202D01*
X0430218Y0688667D01*
Y0690635D01*
X0431202Y0691619D01*
X0432186D01*
Y0687683D01*
X0354727Y0647539D02*
X0358663D01*
X0360630Y0649507D01*
X0358663Y0651475D01*
X0354727D01*
X0357679Y0653443D02*
Y0657379D01*
X0362598Y0661314D02*
Y0662298D01*
X0361614Y0663282D01*
X0356695D01*
Y0660330D01*
X0357679Y0659347D01*
X0359647D01*
X0360630Y0660330D01*
Y0663282D01*
Y0666234D02*
Y0668202D01*
X0359647Y0669186D01*
X0357679D01*
X0356695Y0668202D01*
Y0666234D01*
X0357679Y0665250D01*
X0359647D01*
X0360630Y0666234D01*
Y0672138D02*
Y0674106D01*
X0359647Y0675090D01*
X0357679D01*
X0356695Y0674106D01*
Y0672138D01*
X0357679Y0671154D01*
X0359647D01*
X0360630Y0672138D01*
X0356695Y0677057D02*
X0360630D01*
X0358663D01*
X0357679Y0678041D01*
X0356695Y0679025D01*
Y0680009D01*
Y0682961D02*
X0360630Y0684929D01*
X0356695Y0686897D01*
X0360630Y0691816D02*
Y0689849D01*
X0359647Y0688865D01*
X0357679D01*
X0356695Y0689849D01*
Y0691816D01*
X0357679Y0692800D01*
X0358663D01*
Y0688865D01*
X0500790Y0645177D02*
X0504726D01*
X0506694Y0647145D01*
X0504726Y0649113D01*
X0500790D01*
X0503742Y0651081D02*
Y0655017D01*
X0508661Y0658952D02*
Y0659936D01*
X0507678Y0660920D01*
X0502758D01*
Y0657968D01*
X0503742Y0656984D01*
X0505710D01*
X0506694Y0657968D01*
Y0660920D01*
Y0663872D02*
Y0665840D01*
X0505710Y0666824D01*
X0503742D01*
X0502758Y0665840D01*
Y0663872D01*
X0503742Y0662888D01*
X0505710D01*
X0506694Y0663872D01*
Y0669775D02*
Y0671743D01*
X0505710Y0672727D01*
X0503742D01*
X0502758Y0671743D01*
Y0669775D01*
X0503742Y0668792D01*
X0505710D01*
X0506694Y0669775D01*
X0502758Y0674695D02*
X0506694D01*
X0504726D01*
X0503742Y0675679D01*
X0502758Y0676663D01*
Y0677647D01*
Y0680599D02*
X0506694Y0682567D01*
X0502758Y0684535D01*
X0506694Y0689454D02*
Y0687486D01*
X0505710Y0686502D01*
X0503742D01*
X0502758Y0687486D01*
Y0689454D01*
X0503742Y0690438D01*
X0504726D01*
Y0686502D01*
X0278644Y0000295D02*
X0282580D01*
X0284548Y0002263D01*
X0282580Y0004231D01*
X0278644D01*
X0281596Y0006199D02*
Y0010135D01*
X0286516Y0014070D02*
Y0015054D01*
X0285532Y0016038D01*
X0280612D01*
Y0013086D01*
X0281596Y0012103D01*
X0283564D01*
X0284548Y0013086D01*
Y0016038D01*
Y0018990D02*
Y0020958D01*
X0283564Y0021942D01*
X0281596D01*
X0280612Y0020958D01*
Y0018990D01*
X0281596Y0018006D01*
X0283564D01*
X0284548Y0018990D01*
Y0024894D02*
Y0026862D01*
X0283564Y0027845D01*
X0281596D01*
X0280612Y0026862D01*
Y0024894D01*
X0281596Y0023910D01*
X0283564D01*
X0284548Y0024894D01*
X0280612Y0029813D02*
X0284548D01*
X0282580D01*
X0281596Y0030797D01*
X0280612Y0031781D01*
Y0032765D01*
Y0035717D02*
X0284548Y0037685D01*
X0280612Y0039653D01*
X0284548Y0044572D02*
Y0042604D01*
X0283564Y0041620D01*
X0281596D01*
X0280612Y0042604D01*
Y0044572D01*
X0281596Y0045556D01*
X0282580D01*
Y0041620D01*
M02*
